<?xml version="1.0" encoding="utf-8"?>
<!-- Generator: Adobe Illustrator 24.0.3, SVG Export Plug-In . SVG Version: 6.00 Build 0)  -->
<svg version="1.1" id="Layer_1" xmlns="http://www.w3.org/2000/svg" xmlns:xlink="http://www.w3.org/1999/xlink" x="0px" y="0px"
	 viewBox="0 0 24 24" style="enable-background:new 0 0 24 24;" xml:space="preserve">
<style type="text/css">
	.st0{fill:#CCCCCC;}
</style>
<g id="Layer_1_1_">
</g>
<g id="Layer_2_1_">
</g>
<g id="text">
</g>
<g id="Isolation_Mode">
	<g>
		<path class="st0" d="M12.04,4.7C7.99,4.7,4.7,8,4.7,12.04s3.29,7.34,7.34,7.34s7.34-3.29,7.34-7.34S16.09,4.7,12.04,4.7z
			 M12.04,18.13c-3.35,0-6.09-2.74-6.09-6.09s2.74-6.09,6.09-6.09s6.09,2.74,6.09,6.09S15.39,18.13,12.04,18.13z"/>
		<path class="st0" d="M14.96,9.01c-0.25-0.25-0.63-0.25-0.89,0l-2.15,2.15L10,9.24c-0.24-0.25-0.63-0.25-0.88,0
			c-0.25,0.24-0.25,0.63,0,0.88l1.92,1.92l-1.92,1.92c-0.25,0.25-0.25,0.63,0,0.89c0.12,0.12,0.28,0.19,0.44,0.19
			c0.16,0,0.32-0.07,0.44-0.19l1.92-1.92l2.15,2.15c0.12,0.12,0.28,0.19,0.44,0.19c0.16,0,0.32-0.07,0.44-0.19
			c0.25-0.25,0.25-0.63,0-0.89l-2.15-2.15l2.15-2.15C15.2,9.65,15.2,9.25,14.96,9.01z"/>
	</g>
</g>
</svg>
