<?xml version="1.0" encoding="utf-8"?>
<!-- Generator: Adobe Illustrator 24.1.0, SVG Export Plug-In . SVG Version: 6.00 Build 0)  -->
<svg version="1.1" xmlns="http://www.w3.org/2000/svg" xmlns:xlink="http://www.w3.org/1999/xlink" x="0px" y="0px"
	 viewBox="0 0 24 24" style="enable-background:new 0 0 24 24;" xml:space="preserve">
<style type="text/css">
	.st0{fill:#CCCCCC;}
</style>
<g id="Layer_1">
	<g id="Layer_1_4_">
		<g id="Layer_1_3_">
			<g id="Layer_1_2_">
				<g id="Layer_1_1_">
				</g>
				<g id="text">
				</g>
				<g id="Isolation_Mode">
				</g>
			</g>
		</g>
	</g>
</g>
<g id="Layer_2">
	<g>
		<path class="st0" d="M9,8.9H4c-0.3,0-0.5,0.2-0.5,0.5C3.5,9.7,3.8,10,4,10h5c0.3,0,0.5-0.2,0.5-0.5C9.5,9.2,9.3,8.9,9,8.9z"/>
		<path class="st0" d="M9,11.8H4c-0.3,0-0.5,0.2-0.5,0.5s0.2,0.5,0.5,0.5h5c0.3,0,0.5-0.2,0.5-0.5S9.3,11.8,9,11.8z"/>
		<path class="st0" d="M9,14.7H4c-0.3,0-0.5,0.2-0.5,0.5c0,0.3,0.2,0.5,0.5,0.5h5c0.3,0,0.5-0.2,0.5-0.5C9.5,14.9,9.3,14.7,9,14.7z"
			/>
		<path class="st0" d="M23,3.8h-7.7c-1.4,0-2.7,0.8-3.3,1.9c-0.7-1.1-1.9-1.9-3.3-1.9H1C0.7,3.8,0.5,4,0.5,4.3v15.5
			c0,0.3,0.2,0.5,0.5,0.5h11h11c0.3,0,0.5-0.2,0.5-0.5V4.3C23.5,4,23.3,3.8,23,3.8z M1.5,4.8h7.2c1.5,0,2.8,1.3,2.8,2.8v11.6h-10
			V4.8z M22.5,19.2h-10V7.6c0-1.5,1.3-2.8,2.8-2.8h7.2V19.2z"/>
		<path class="st0" d="M14.5,9.4c0,0.3,0.2,0.5,0.5,0.5h5c0.3,0,0.5-0.2,0.5-0.5c0-0.3-0.2-0.5-0.5-0.5h-5
			C14.7,8.9,14.5,9.2,14.5,9.4z"/>
		<path class="st0" d="M20,11.8h-5c-0.3,0-0.5,0.2-0.5,0.5s0.2,0.5,0.5,0.5h5c0.3,0,0.5-0.2,0.5-0.5S20.2,11.8,20,11.8z"/>
		<path class="st0" d="M20,14.7h-5c-0.3,0-0.5,0.2-0.5,0.5c0,0.3,0.2,0.5,0.5,0.5h5c0.3,0,0.5-0.2,0.5-0.5
			C20.5,14.9,20.2,14.7,20,14.7z"/>
	</g>
</g>
<g id="Isolation_Mode_1_">
</g>
</svg>
