<?xml version="1.0" encoding="UTF-8" standalone="no"?>
<svg
   xmlns:dc="http://purl.org/dc/elements/1.1/"
   xmlns:cc="http://creativecommons.org/ns#"
   xmlns:rdf="http://www.w3.org/1999/02/22-rdf-syntax-ns#"
   xmlns:svg="http://www.w3.org/2000/svg"
   xmlns="http://www.w3.org/2000/svg"
   xmlns:sodipodi="http://sodipodi.sourceforge.net/DTD/sodipodi-0.dtd"
   xmlns:inkscape="http://www.inkscape.org/namespaces/inkscape"
   version="1.1"
   viewBox="0 0 24 24"
   id="svg36"
   sodipodi:docname="00da.svg"
   width="24"
   height="24"
   inkscape:version="0.92.4 5da689c313, 2019-01-14">
  <metadata
     id="metadata42">
    <rdf:RDF>
      <cc:Work
         rdf:about="">
        <dc:format>image/svg+xml</dc:format>
        <dc:type
           rdf:resource="http://purl.org/dc/dcmitype/StillImage" />
        <dc:title></dc:title>
      </cc:Work>
    </rdf:RDF>
  </metadata>
  <defs
     id="defs40" />
  <sodipodi:namedview
     pagecolor="#ffffff"
     bordercolor="#666666"
     borderopacity="1"
     objecttolerance="10"
     gridtolerance="10"
     guidetolerance="10"
     inkscape:pageopacity="0"
     inkscape:pageshadow="2"
     inkscape:window-width="1890"
     inkscape:window-height="1043"
     id="namedview38"
     showgrid="false"
     inkscape:zoom="20.85965"
     inkscape:cx="31.622242"
     inkscape:cy="17.708536"
     inkscape:window-x="30"
     inkscape:window-y="0"
     inkscape:window-maximized="1"
     inkscape:current-layer="svg36" />
  <g
     transform="matrix(0.10275593,0,0,0.10569363,-0.35766336,-1.4655834)"
     id="g10"
     style="stroke:#d3d3d3;stroke-width:1;stroke-dasharray:1, 1" />
  <g
     transform="matrix(0.02568899,0,0,-0.02642341,-0.35766336,22.315483)"
     id="g34"
     style="fill:#000000">
    <style
       type="text/css"
       id="style12">
        .stroke1 {fill: #BF0909;}
        .stroke2 {fill: #BFBF09;}
        .stroke3 {fill: #09BF09;}
        .stroke4 {fill: #09BFBF;}
        .stroke5 {fill: #0909BF;}
        .stroke6 {fill: #BF09BF;}
        .stroke7 {fill: #42005e;}
        .stroke8 {fill: #ff3333;}
        .stroke9 {fill: #BFBFBF;}
        .stroke10 {fill: #00a53f;}
        .stroke11 {fill: #fff000;}
        .stroke12 {fill: #6600a5;}
        .stroke13 {fill: #0053a5;}
        .stroke14 {fill: #62c22b;}
        .stroke15 {fill: #BF09BF;}
        .stroke16 {fill: #BF0909;}
        .stroke17 {fill: #BFBF09;}
        .stroke18 {fill: #09BF09;}
        .stroke19 {fill: #09BFBF;}
        .stroke20 {fill: #0909BF;}
        text {
            font-family: Helvetica;
            font-size: 50px;
            fill: #FFFFFF;
            paint-order: stroke;
            stroke: #000000;
            stroke-width: 4px;
            stroke-linecap: butt;
            stroke-linejoin: miter;
            font-weight: 800;
        }
    </style>
    <path
       d="m 364,532 q 94,30 96,31 9,9 4,17 -9,12 -38,18 -31,4 -60,-9 l -50,-19 q -90,-27 -168,-39 -37,-9 -10,-24 45,-24 101,-6 37,10 76,19 z"
       class="stroke1"
       id="path14"
       style="fill:#4d4d4d"
       inkscape:connector-curvature="0" />
    <path
       d="m 312,332 q -1,-85 -2,-191 -1,-24 -13,-32 -6,-4 -60,-1 -33,10 -30,1 1,-7 22,-22 55,-45 68,-71 16,-30 30,-31 15,-1 29,34 16,46 15,119 -7,114 -9,228 v 33 q -1,67 2,133 l 2,57 q 0,99 20,168 18,30 -38,52 -34,19 -53,12 -18,-6 -2,-29 22,-28 23,-61 1,-18 0,-161 l -1,-50 q -1,-61 -2,-145 z"
       class="stroke2"
       id="path16"
       style="fill:#4d4d4d"
       inkscape:connector-curvature="0" />
    <path
       d="m 362,366 q 70,46 78,54 7,13 -4,13 -15,0 -74,-34 L 313,375 Q 213,327 126,281 87,262 63,257 50,251 46,243 q -1,-10 13,-25 19,-18 43,-28 15,-4 31,10 66,58 179,132 z"
       class="stroke3"
       id="path18"
       style="fill:#4d4d4d"
       inkscape:connector-curvature="0" />
    <path
       d="m 709,517 q 93,15 197,15 19,1 23,10 4,12 -12,24 -57,39 -112,18 -118,-27 -318,-66 -21,-3 -4,-19 13,-13 31,-17 21,-4 36,2 49,16 106,25 z"
       class="stroke4"
       id="path20"
       style="fill:#b3b3b3"
       inkscape:connector-curvature="0" />
    <path
       d="m 625,58 q -27,7 -60,14 -13,4 -12,-4 1,-9 12,-18 72,-52 119,-96 13,-9 27,8 40,57 34,139 -15,201 -7,355 6,28 0,39 -7,10 -29,22 c -25,16 -62,21 -53,-8 q 15,-48 17,-71 0,-3 0,-6 15,-345 -5,-374 -12,-9 -43,0 z"
       class="stroke5"
       id="path22"
       style="fill:#b3b3b3"
       inkscape:connector-curvature="0" />
  </g>
</svg>
