<?xml version="1.0" encoding="utf-8"?>
<!-- Generator: Adobe Illustrator 24.0.3, SVG Export Plug-In . SVG Version: 6.00 Build 0)  -->
<svg version="1.1" id="Layer_1" xmlns="http://www.w3.org/2000/svg" xmlns:xlink="http://www.w3.org/1999/xlink" x="0px" y="0px"
	 viewBox="0 0 24 24" style="enable-background:new 0 0 24 24;" xml:space="preserve">
<style type="text/css">
	.st0{fill:#CCCCCC;}
</style>
<g id="Layer_1_2_">
	<g id="Layer_1_1_">
	</g>
	<g id="text">
	</g>
	<g id="Isolation_Mode">
	</g>
</g>
<g id="Layer_2_1_">
	<path class="st0" d="M19.79,8.98l-4.05-4.07c-0.66-0.66-1.72-0.67-2.37-0.01l-9.2,9.13c-0.32,0.32-0.5,0.73-0.5,1.19
		c0,0.44,0.17,0.87,0.49,1.2l2.62,2.65l5.23,0.03l7.76-7.71c0.32-0.32,0.5-0.73,0.5-1.19C20.29,9.72,20.11,9.3,19.79,8.98z
		 M11.47,17.72L7.35,17.7l-2.24-2.24c-0.09-0.09-0.09-0.19-0.09-0.24s0.02-0.15,0.1-0.24l3.02-3l4.52,4.55L11.47,17.72z
		 M18.84,10.41l-5.23,5.18l-4.52-4.55l5.23-5.18c0.13-0.13,0.35-0.13,0.47,0l4.04,4.07c0.09,0.09,0.09,0.19,0.09,0.24
		C18.93,10.22,18.92,10.32,18.84,10.41z"/>
</g>
</svg>
