<?xml version="1.0" encoding="utf-8"?>
<!-- Generator: Adobe Illustrator 24.1.0, SVG Export Plug-In . SVG Version: 6.00 Build 0)  -->
<svg version="1.1" xmlns="http://www.w3.org/2000/svg" xmlns:xlink="http://www.w3.org/1999/xlink" x="0px" y="0px"
	 viewBox="0 0 24 24" style="enable-background:new 0 0 24 24;" xml:space="preserve">
<g id="Layer_1">
	<g id="Layer_1_1_">
	</g>
	<g id="text">
	</g>
	<g id="Isolation_Mode">
	</g>
</g>
<g id="Layer_2">
	<g>
		<path d="M18.9,0.9H9.2C8,0.9,7.1,1.9,7.1,3c0,0.4,0.3,0.6,0.6,0.6c0.4,0,0.6-0.3,0.6-0.6c0-0.5,0.4-0.8,0.8-0.8h9.7
			c0.5,0,0.8,0.4,0.8,0.8v13.9c0,0.5-0.4,0.8-0.8,0.8c-0.4,0-0.6,0.3-0.6,0.6s0.3,0.6,0.6,0.6c1.2,0,2.1-0.9,2.1-2.1V3
			C21,1.9,20,0.9,18.9,0.9z"/>
		<path d="M5.1,5C4,5,3,5.9,3,7.1V21c0,1.2,0.9,2.1,2.1,2.1h9.7c1.2,0,2.1-0.9,2.1-2.1v-9.9L10.8,5H5.1z M14.7,10.7H12
			c-0.5,0-0.8-0.4-0.8-0.8V7.2L13,9L14.7,10.7z M14.8,21.8H5.1c-0.5,0-0.8-0.4-0.8-0.8V7.1c0-0.5,0.4-0.8,0.8-0.8h4.7v3.6
			c0,1.2,0.9,2.1,2.1,2.1h3.6V21C15.6,21.4,15.3,21.8,14.8,21.8z"/>
	</g>
</g>
</svg>
