<?xml version="1.0" encoding="utf-8"?>
<!-- Generator: Adobe Illustrator 24.0.3, SVG Export Plug-In . SVG Version: 6.00 Build 0)  -->
<svg version="1.1" xmlns="http://www.w3.org/2000/svg" xmlns:xlink="http://www.w3.org/1999/xlink" x="0px" y="0px"
	 viewBox="0 0 24 24" style="enable-background:new 0 0 24 24;" xml:space="preserve">
<style type="text/css">
	.st0{fill:#CCCCCC;}
</style>
<g id="Layer_1">
</g>
<g id="Layer_2">
	<path class="st0" d="M18.43,0.54H8.91c-1.51,0-2.77,1.08-3.04,2.51H4.93c-1.31,0-2.38,1.07-2.38,2.38v15.73
		c0,1.31,1.07,2.38,2.38,2.38h10.97c1.31,0,2.38-1.07,2.38-2.38v-0.13h0.16c1.71,0,3.1-1.39,3.1-3.1V3.64
		C21.53,1.93,20.14,0.54,18.43,0.54z M16.84,19.6v1.44v0.13c0,0.52-0.42,0.94-0.94,0.94H4.93c-0.52,0-0.94-0.42-0.94-0.94V5.43
		c0-0.52,0.42-0.94,0.94-0.94h0.88h1.44h3.08v4.14c0,1.31,1.07,2.38,2.38,2.38h4.14V19.6z M11.76,8.62V5.5l4.07,4.06h0H12.7
		C12.18,9.57,11.76,9.14,11.76,8.62z M20.1,17.93c0,0.92-0.75,1.66-1.66,1.66h-0.16V9.99l-6.94-6.94H7.36
		C7.6,2.42,8.2,1.98,8.91,1.98h9.52c0.92,0,1.66,0.75,1.66,1.66V17.93z"/>
</g>
<g id="text">
</g>
<g id="Isolation_Mode">
</g>
</svg>
