<?xml version="1.0" encoding="utf-8"?>
<!-- Generator: Adobe Illustrator 24.0.3, SVG Export Plug-In . SVG Version: 6.00 Build 0)  -->
<svg version="1.1" id="Layer_1" xmlns="http://www.w3.org/2000/svg" xmlns:xlink="http://www.w3.org/1999/xlink" x="0px" y="0px"
	 viewBox="0 0 24 24" style="enable-background:new 0 0 24 24;" xml:space="preserve">
<style type="text/css">
	.st0{fill:#CCCCCC;}
</style>
<g id="Layer_1_2_">
	<g id="Layer_1_1_">
	</g>
	<g id="text">
	</g>
	<g id="Isolation_Mode">
	</g>
</g>
<g id="Layer_2_1_">
	<g>
		<path class="st0" d="M14.15,16.7c-0.06,0-0.13,0.01-0.19,0.03c-0.63,0.19-1.29,0.29-1.95,0.29c-3.96,0-7.44-3.87-8.35-4.96
			c0.8-0.96,1.69-1.83,2.65-2.61C6.6,9.21,6.64,8.8,6.41,8.52C6.29,8.36,6.1,8.27,5.9,8.27c-0.15,0-0.3,0.05-0.42,0.15
			c-1.18,0.95-2.25,2.04-3.17,3.24c-0.17,0.24-0.17,0.55,0,0.78c0.82,1.08,1.76,2.05,2.8,2.93c2.29,1.94,4.69,2.97,6.92,2.97
			c0.79,0,1.57-0.12,2.33-0.35c0.34-0.1,0.55-0.47,0.44-0.81C14.7,16.88,14.44,16.7,14.15,16.7z"/>
		<path class="st0" d="M21.73,11.66c-0.82-1.07-1.76-2.05-2.8-2.93c-2.29-1.94-4.69-2.97-6.92-2.97C10.54,5.8,9.08,6.19,7.79,6.9
			l-2-2C5.66,4.78,5.5,4.71,5.33,4.71S4.99,4.78,4.87,4.9c-0.26,0.26-0.26,0.68,0,0.92l13.37,13.37c0.12,0.12,0.29,0.19,0.46,0.19
			c0.17,0,0.34-0.07,0.46-0.19c0.26-0.26,0.26-0.68,0-0.92l-1.76-1.76c1.65-1.11,3.11-2.48,4.32-4.06
			C21.89,12.2,21.89,11.9,21.73,11.66z M15.84,11.59c-0.12-1.03-0.64-1.93-1.45-2.58c-0.68-0.53-1.52-0.82-2.39-0.82
			c-0.8,0-1.57,0.25-2.22,0.7L8.77,7.87c1.01-0.5,2.13-0.77,3.25-0.79c3.97,0,7.43,3.87,8.34,4.96c-1.12,1.36-2.44,2.54-3.91,3.51
			l-1.28-1.28C15.72,13.5,15.95,12.55,15.84,11.59z M12.02,9.5c0.81,0,1.58,0.39,2.06,1.04c0.61,0.83,0.65,1.92,0.15,2.78
			l-3.48-3.48C11.12,9.62,11.57,9.5,12.02,9.5z"/>
		<path class="st0" d="M12.67,15.25c0-0.36-0.29-0.66-0.66-0.66c-1.4,0-2.55-1.15-2.55-2.55c0-0.36-0.29-0.66-0.66-0.66
			c-0.36,0-0.66,0.29-0.66,0.66c0,2.12,1.74,3.86,3.86,3.86C12.38,15.91,12.67,15.62,12.67,15.25z"/>
	</g>
</g>
</svg>
