<?xml version="1.0" encoding="utf-8"?>
<!-- Generator: Adobe Illustrator 24.0.3, SVG Export Plug-In . SVG Version: 6.00 Build 0)  -->
<svg version="1.1" xmlns="http://www.w3.org/2000/svg" xmlns:xlink="http://www.w3.org/1999/xlink" x="0px" y="0px"
	 viewBox="0 0 24 24" style="enable-background:new 0 0 24 24;" xml:space="preserve">
<style type="text/css">
	.st0{fill:#CCCCCC;}
</style>
<g id="Layer_1">
</g>
<g id="Layer_2">
	<g>
		<path class="st0" d="M23.31,14.92l-1.47-1.47c-0.14-1.28-0.75-2.51-1.7-3.46l-1.88-1.88c-0.32-0.32-0.74-0.52-1.17-0.55
			c-0.44-0.03-0.84,0.11-1.12,0.4c-0.15,0.15-0.26,0.35-0.32,0.61c-0.67-0.49-1.53-0.49-2.05,0.03c-0.15,0.15-0.26,0.35-0.32,0.61
			c-0.67-0.49-1.53-0.49-2.05,0.03c-0.15,0.14-0.25,0.33-0.31,0.56L8.39,7.28C7.72,6.6,6.69,6.54,6.1,7.13
			C5.51,7.72,5.58,8.75,6.25,9.42l4.35,4.35c-0.42,0.77-0.25,1.76,0.44,2.44l1.16,1.16c0.81,0.81,2.04,1.17,2.89,1.36
			c0.96,0.22,1.89,0.31,2.6,0.37l0.73,0.73c0.1,0.1,0.24,0.15,0.37,0.15c0.11,0,0.22-0.04,0.3-0.12l4.27-4.27
			C23.52,15.43,23.5,15.11,23.31,14.92z M11.33,14.49l1.58,1.58c0.1,0.1,0.23,0.16,0.38,0.16c0.13,0.01,0.23-0.04,0.3-0.12
			c0.08-0.08,0.12-0.18,0.12-0.3c0-0.14-0.06-0.28-0.16-0.38L6.89,8.78c-0.14-0.14-0.23-0.32-0.24-0.5
			C6.64,8.11,6.69,7.95,6.81,7.84c0.24-0.24,0.66-0.21,0.95,0.08l3.62,3.62c0.2,0.2,0.5,0.21,0.67,0.04
			c0.09-0.09,0.13-0.21,0.12-0.34c-0.01-0.12-0.07-0.24-0.16-0.34c-0.29-0.29-0.32-0.7-0.08-0.95c0.24-0.24,0.66-0.21,0.95,0.08
			l0.87,0.87c0.09,0.09,0.21,0.15,0.34,0.16c0.13,0.01,0.25-0.03,0.34-0.12c0.17-0.18,0.16-0.48-0.04-0.67
			c-0.29-0.29-0.32-0.7-0.08-0.95c0.24-0.24,0.66-0.21,0.95,0.08l0.87,0.87c0.2,0.2,0.5,0.21,0.67,0.04
			c0.18-0.17,0.16-0.48-0.04-0.67c-0.14-0.14-0.23-0.32-0.24-0.5c-0.01-0.17,0.05-0.33,0.16-0.45c0.12-0.12,0.27-0.17,0.45-0.16
			c0.18,0.01,0.36,0.1,0.5,0.24l1.88,1.88c0.84,0.84,1.34,1.9,1.42,2.99c0.01,0.13,0.07,0.25,0.16,0.34l1.24,1.24l-3.63,3.63
			l-0.51-0.51c-0.09-0.09-0.22-0.15-0.34-0.16c-1.04-0.07-1.91-0.19-2.65-0.36c-1.07-0.25-1.93-0.63-2.36-1.07l-1.16-1.16
			C11.36,15.27,11.23,14.85,11.33,14.49z"/>
		<path class="st0" d="M6.99,11.39c-0.41,0.13-0.84,0.19-1.28,0.19c-2.36,0-4.28-1.92-4.28-4.28c0-2.36,1.92-4.28,4.28-4.28
			c2.36,0,4.28,1.92,4.28,4.28c0,0.27,0.21,0.48,0.48,0.48c0.27,0,0.48-0.21,0.48-0.48c0-2.89-2.35-5.24-5.24-5.24
			c-2.89,0-5.24,2.35-5.24,5.24c0,2.89,2.35,5.24,5.24,5.24c0.53,0,1.06-0.08,1.56-0.24c0.25-0.08,0.39-0.35,0.32-0.6
			C7.51,11.45,7.24,11.31,6.99,11.39z"/>
	</g>
</g>
<g id="text">
</g>
<g id="Isolation_Mode">
</g>
</svg>
