<?xml version="1.0" encoding="utf-8"?>
<!-- Generator: Adobe Illustrator 24.1.0, SVG Export Plug-In . SVG Version: 6.00 Build 0)  -->
<svg version="1.1" xmlns="http://www.w3.org/2000/svg" xmlns:xlink="http://www.w3.org/1999/xlink" x="0px" y="0px"
	 viewBox="0 0 24 24" style="enable-background:new 0 0 24 24;" xml:space="preserve">
<g id="Layer_1">
	<g id="Layer_1_1_">
	</g>
	<g id="text">
	</g>
	<g id="Isolation_Mode">
	</g>
</g>
<g id="Layer_2">
	<g>
		<g>
			<g>
				<path d="M23.3,15.5l-1.6-1.6c-0.2-1.4-0.8-2.7-1.8-3.7l-2-2c-0.3-0.3-0.8-0.6-1.3-0.6c-0.5,0-0.9,0.1-1.2,0.4
					c-0.2,0.2-0.3,0.4-0.3,0.7c-0.7-0.5-1.6-0.5-2.2,0c-0.2,0.2-0.3,0.4-0.3,0.7c-0.7-0.5-1.6-0.5-2.2,0C10.2,9.5,10.1,9.7,10,10
					L7.3,7.2C6.9,6.9,6.5,6.7,6,6.7c-0.5,0-0.9,0.1-1.2,0.4S4.4,7.8,4.4,8.3c0,0.5,0.2,0.9,0.6,1.3l4.7,4.7
					c-0.5,0.8-0.3,1.9,0.5,2.6l1.2,1.2c0.9,0.9,2.2,1.3,3.1,1.5c1,0.2,2,0.3,2.8,0.4l0.8,0.8c0.1,0.1,0.3,0.2,0.4,0.2
					c0.1,0,0.2,0,0.3-0.1l4.6-4.6C23.6,16,23.5,15.7,23.3,15.5z M10.4,15l1.7,1.7c0.1,0.1,0.3,0.2,0.4,0.2c0.1,0,0.2,0,0.3-0.1
					c0.1-0.1,0.1-0.2,0.1-0.3c0-0.2-0.1-0.3-0.2-0.4L5.7,8.9c-0.3-0.3-0.3-0.8-0.1-1c0.3-0.3,0.7-0.2,1,0.1l3.9,3.9
					c0.2,0.2,0.5,0.2,0.7,0c0.2-0.2,0.2-0.5,0-0.7c-0.3-0.3-0.3-0.8-0.1-1c0.3-0.3,0.7-0.2,1,0.1l0.9,0.9c0.1,0.1,0.2,0.2,0.4,0.2
					c0.1,0,0.3,0,0.4-0.1c0.1-0.1,0.1-0.2,0.1-0.4c0-0.1-0.1-0.3-0.2-0.4c-0.2-0.2-0.2-0.3-0.3-0.5c0-0.2,0-0.4,0.2-0.5
					c0.1-0.1,0.3-0.2,0.5-0.2c0.2,0,0.4,0.1,0.5,0.3l0.9,0.9c0.1,0.1,0.2,0.2,0.4,0.2c0.1,0,0.3,0,0.4-0.1c0.1-0.1,0.1-0.2,0.1-0.4
					c0-0.1-0.1-0.3-0.2-0.4c-0.3-0.3-0.3-0.8-0.1-1c0.3-0.3,0.7-0.2,1,0.1l2,2c0.9,0.9,1.4,2,1.5,3.2c0,0.1,0.1,0.3,0.2,0.4l1.3,1.3
					l-3.9,3.9l-0.6-0.6c-0.1-0.1-0.2-0.2-0.4-0.2c-1.1-0.1-2-0.2-2.8-0.4c-1.2-0.3-2.1-0.7-2.5-1.1l-1.2-1.2
					C10.5,15.8,10.3,15.4,10.4,15z"/>
			</g>
		</g>
		<g>
			<path d="M6.4,14.5c-3.2,0-5.7-2.6-5.7-5.7s2.6-5.7,5.7-5.7c2.6,0,4.8,1.7,5.5,4.2c0.1,0.3-0.1,0.6-0.4,0.6
				c-0.3,0.1-0.6-0.1-0.6-0.4c-0.6-2-2.4-3.4-4.5-3.4c-2.6,0-4.7,2.1-4.7,4.7s2.1,4.7,4.7,4.7c0.3,0,0.6,0,0.8-0.1
				c0.3-0.1,0.6,0.1,0.6,0.4c0.1,0.3-0.1,0.6-0.4,0.6C7,14.5,6.7,14.5,6.4,14.5z"/>
		</g>
	</g>
</g>
</svg>
