<?xml version="1.0" encoding="utf-8"?>
<!-- Generator: Adobe Illustrator 24.0.3, SVG Export Plug-In . SVG Version: 6.00 Build 0)  -->
<svg version="1.1" id="Layer_1" xmlns="http://www.w3.org/2000/svg" xmlns:xlink="http://www.w3.org/1999/xlink" x="0px" y="0px"
	 viewBox="0 0 24 24" style="enable-background:new 0 0 24 24;" xml:space="preserve">
<style type="text/css">
	.st0{fill:#CCCCCC;}
</style>
<g id="Layer_1_2_">
	<g id="Layer_1_1_">
	</g>
	<g id="text">
	</g>
	<g id="Isolation_Mode">
	</g>
</g>
<g id="Layer_2_1_">
	<g>
		<path class="st0" d="M14.1,16.7c-0.1,0-0.1,0-0.2,0C13.3,16.9,12.7,17,12,17c-4,0-7.4-3.9-8.4-5c0.8-1,1.7-1.8,2.7-2.6
			c0.3-0.2,0.3-0.7,0.1-0.9C6.3,8.3,6.1,8.2,5.9,8.2c-0.2,0-0.3,0-0.4,0.1c-1.2,0.9-2.2,2-3.2,3.2c-0.2,0.2-0.2,0.5,0,0.8
			c0.8,1.1,1.8,2.1,2.8,2.9c2.3,1.9,4.7,3,6.9,3c0.8,0,1.6-0.1,2.3-0.4c0.3-0.1,0.6-0.5,0.4-0.8C14.7,16.8,14.4,16.7,14.1,16.7z"/>
		<path class="st0" d="M21.7,11.6c-0.8-1.1-1.8-2.1-2.8-2.9c-2.3-1.9-4.7-3-6.9-3c-1.5,0-2.9,0.4-4.2,1.1l-2-2
			C5.6,4.7,5.5,4.7,5.3,4.7S5,4.7,4.9,4.9c-0.3,0.3-0.3,0.7,0,0.9l13.4,13.4c0.1,0.1,0.3,0.2,0.5,0.2c0.2,0,0.3-0.1,0.5-0.2
			c0.3-0.3,0.3-0.7,0-0.9l-1.8-1.8c1.6-1.1,3.1-2.5,4.3-4.1C21.9,12.2,21.9,11.9,21.7,11.6z M15.8,11.5c-0.1-1-0.6-1.9-1.4-2.6
			c-0.7-0.5-1.5-0.8-2.4-0.8c-0.8,0-1.6,0.2-2.2,0.7l-1-1c1-0.5,2.1-0.8,3.2-0.8c4,0,7.4,3.9,8.3,5c-1.1,1.4-2.4,2.5-3.9,3.5
			l-1.3-1.3C15.7,13.5,15.9,12.5,15.8,11.5z M12,9.5c0.8,0,1.6,0.4,2.1,1c0.6,0.8,0.6,1.9,0.1,2.8l-3.5-3.5
			C11.1,9.6,11.6,9.5,12,9.5z"/>
		<path class="st0" d="M12.7,15.2c0-0.4-0.3-0.7-0.7-0.7c-1.4,0-2.6-1.1-2.6-2.6c0-0.4-0.3-0.7-0.7-0.7c-0.4,0-0.7,0.3-0.7,0.7
			c0,2.1,1.7,3.9,3.9,3.9C12.4,15.9,12.7,15.6,12.7,15.2z"/>
	</g>
</g>
</svg>
