<?xml version="1.0" encoding="utf-8"?>
<!-- Generator: Adobe Illustrator 24.1.0, SVG Export Plug-In . SVG Version: 6.00 Build 0)  -->
<svg version="1.1" xmlns="http://www.w3.org/2000/svg" xmlns:xlink="http://www.w3.org/1999/xlink" x="0px" y="0px"
	 viewBox="0 0 108 108" style="enable-background:new 0 0 108 108;" xml:space="preserve">
<style type="text/css">
	.st0{display:none;}
	.st1{display:inline;}
	.st2{fill:#E6E6E6;}
	.st3{fill:url(#SVGID_1_);}
	.st4{fill:#EDCB85;}
	.st5{fill:#B5333D;}
	.st6{fill:url(#SVGID_2_);}
	.st7{fill:url(#SVGID_3_);}
</style>
<g id="_x37_2x72" class="st0">
	<g class="st1">
		<path class="st2" d="M90,18v72H18V18H90 M90.5,17.5H90H18h-0.5V18v72v0.5H18h72h0.5V90V18V17.5L90.5,17.5z"/>
	</g>
</g>
<g id="Layer_4" class="st0">
</g>
<g id="Layer_2">
</g>
<g id="shadows">
	<g>
		<linearGradient id="SVGID_1_" gradientUnits="userSpaceOnUse" x1="72.9234" y1="26.5739" x2="74.1793" y2="60.286">
			<stop  offset="0.1463" style="stop-color:#AD3C3F"/>
			<stop  offset="0.2067" style="stop-color:#B9584C"/>
			<stop  offset="0.3104" style="stop-color:#CC8161"/>
			<stop  offset="0.4119" style="stop-color:#DAA170"/>
			<stop  offset="0.5092" style="stop-color:#E5B87C"/>
			<stop  offset="0.6004" style="stop-color:#EBC683"/>
			<stop  offset="0.6795" style="stop-color:#EDCB85"/>
		</linearGradient>
		<path class="st3" d="M63.533,40.884c0,0,2.918-3.927,5.009-7.678s3.321-7.244,3.321-7.244s2.46,5.829,3.444,7.49
			c0.984,1.661,5.166,10.148,5.966,12.67c0.8,2.522,2.46,8.733,2.706,11.194c0.246,2.46-0.923,9.594-0.923,9.779
			s-0.123-3.69-1.23-7.257c-1.107-3.567-3.813-9.963-4.49-10.333c-0.677-0.369-1.107,0-1.23,0.492
			c-0.123,0.492-0.308,4.982-0.308,4.982s-1.661-5.72-1.968-6.95c-0.308-1.23-1.23-2.645-1.722-3.075
			c-0.492-0.431-1.353-1.169-2.091-0.062c-0.738,1.107-1.784,2.583-1.784,2.583s0.69-4.521,0.444-5.505
			c-0.246-0.984-0.943-2.337-3.034-1.763C64.663,40.477,63.533,40.884,63.533,40.884z"/>
		<path class="st4" d="M69.466,23.005c0,0,0.094-4.662-0.049-4.908c-0.144-0.246,1.558,0.533,1.886,1.353
			c0.328,0.82,0.533,2.173,0.533,2.173s-0.943,0.861-1.312,0.943C70.155,22.649,69.466,23.005,69.466,23.005z"/>
		<path class="st4" d="M42.06,38.706c0,0,1.977,0.979,1.895,3.521c-0.031,0.953-0.23,2.858-0.718,3.793
			c-0.813,1.558-1.517,1.486-2.337,2.891c-0.82,1.404-2.686,3.813-2.932,4.305c-0.246,0.492-1.476,0.82-2.214,2.542
			s-2.05,5.33-2.173,7.298c-0.123,1.968-0.246,5.289-0.246,5.289s-0.615-0.861-0.246,1.476c0.369,2.337,1.107,6.396,3.567,8.118
			c2.46,1.722,4.859,2.768,8.303,2.522c3.444-0.246,3.998-2.645,3.998-2.645s-0.615-0.369-2.829-2.337
			c-2.214-1.968-2.706-5.658-2.706-5.658l-0.369-4.92l2.337-8.118l1.23-4.428c0,0,4.305-4.428,5.658-7.38s1.293-6.126,1.293-6.126
			s0.156-3.224-1.197-5.807s-1.572-2.95-1.572-2.95l-2.952,5.043c0,0,0,0.984-1.353,0.738c-1.353-0.246-2.337-0.615-3.198,0
			C42.438,36.487,42.06,38.706,42.06,38.706z"/>
		<path class="st5" d="M62.297,37.628c0,0,3.813-2.706,5.166-6.396c1.353-3.69,2.091-7.749,2.091-7.749s0.492-0.492,1.23-1.107
			c0.738-0.615,1.544-1.325,1.544-1.325s4.114,12.15,4.852,13.257c0.738,1.107,5.074,11.809,5.074,11.809l0.641,4.874l-3.016-7.185
			l-5.737-12.392c0,0-2.251-4.979-2.62-5.348s-0.984,4.059-1.599,5.043c-0.615,0.984-2.337,3.813-3.936,5.781
			c-1.599,1.968-4.428,5.535-4.428,5.535L62.297,37.628z"/>
		<path class="st5" d="M30.383,43.929c0,0-2.583-0.923-3.875-3.506s-1.661-3.69-1.661-3.69s3.383-0.713,4.059-1.107
			c2.214-1.292,4.065-3.83,4.982-6.642c0.923-2.829,2.337-7.134,3.321-7.934c0.984-0.8,2.214,0.369,2.214,0.369
			s4.797-1.661,7.196-2.214c2.399-0.554,3.506-1.292,4.244-0.738L56,20.183c0,0,3.349-1.2,5.381-1.347
			c2.255-0.164,2.214,0.205,2.214,0.205s-0.694,2.166-2.501,3.275c-3.299,2.026-4.25,2.701-4.25,2.701s4.783-0.195,5.336-0.195
			c0.554,0-4.674,2.87-4.674,2.87l-1.169,0.451l3.752,0.656l-0.113,1.567c0,0,1.526,3.168,1.807,3.895
			c0.535,1.388,0.336,6.531-0.956,8.745c-1.292,2.214-5.535,9.041-7.011,11.624c-1.476,2.583-3.506,6.089-3.321,8.672
			c0.185,2.583,0.738,3.506,2.952,1.661c2.214-1.845,7.196-8.856,9.225-9.779c2.03-0.923,4.797-1.845,7.196-0.554
			c2.399,1.292,4.244,3.506,4.059,6.273s-1.107,7.749-4.797,12.178c-3.69,4.428-11.624,13.285-11.993,13.838
			c-0.369,0.554,4.059-0.554,4.059-0.554s-1.661,3.321-3.506,4.797c-1.845,1.476-6.458,4.613-7.934,5.166
			c-1.476,0.554-7.565,2.03-7.565,2.03s5.351-4.428,6.827-7.011c1.476-2.583,5.166-9.963,5.166-9.963l0.369,3.506
			c0,0,0.738-0.185,3.506-3.321c2.768-3.137,8.118-10.517,8.856-13.1c0.738-2.583,0.738-6.458-0.369-7.196s-4.613,0.554-6.089,2.399
			c-1.476,1.845-6.827,8.672-7.38,9.779c-0.554,1.107-2.214,3.506-3.875,3.506c-1.661,0-4.244-1.107-4.613-3.137
			c-0.369-2.03-1.661-8.672-1.661-8.672s2.768-8.487,2.952-9.963c0.185-1.476,1.107-3.137,1.107-3.137s5.582-4.675,6.273-7.38
			c0.711-2.782,0.394-3.822,0.168-6.499c-0.321-3.801-2.751-8.261-2.751-8.261l-3.137,5.904H44.96c0,0-1.476-0.554-1.661,0.369
			c-0.185,0.923-1.661,2.768-1.661,2.768s-2.583,0-3.506,0.369s-2.952,1.292-3.69,2.214s-2.411,3.207-2.411,3.207L30.383,43.929z"/>
		
			<ellipse transform="matrix(0.1791 -0.9838 0.9838 0.1791 7.2761 68.0124)" class="st4" cx="44.393" cy="29.646" rx="1.455" ry="1.164"/>
		<linearGradient id="SVGID_2_" gradientUnits="userSpaceOnUse" x1="39.3692" y1="22.6855" x2="43.3291" y2="11.9854">
			<stop  offset="0.1673" style="stop-color:#AD3C3F"/>
			<stop  offset="0.2253" style="stop-color:#B9584C"/>
			<stop  offset="0.325" style="stop-color:#CC8161"/>
			<stop  offset="0.4225" style="stop-color:#DAA170"/>
			<stop  offset="0.5159" style="stop-color:#E5B87C"/>
			<stop  offset="0.6035" style="stop-color:#EBC683"/>
			<stop  offset="0.6795" style="stop-color:#EDCB85"/>
		</linearGradient>
		<path class="st6" d="M38.153,20.086c0,0,0.328-3.075,0.902-3.239c0.574-0.164,1.64,0.369,1.64,0.369s0.943-0.041,1.066-1.107
			c0.123-1.066,0.779-2.788,1.435-3.526s0.984-1.394,1.353-1.23s0.164,1.435,0.164,1.722s-1.722,6.97-1.722,6.97
			s-2.711,1.747-3.111,1.921c-0.37,0.161-1.717-0.947-1.758-1.234C38.081,20.445,38.153,20.086,38.153,20.086z"/>
		<linearGradient id="SVGID_3_" gradientUnits="userSpaceOnUse" x1="51.7336" y1="24.4471" x2="62.3693" y2="10.5176">
			<stop  offset="0.1463" style="stop-color:#AD3C3F"/>
			<stop  offset="0.2067" style="stop-color:#B9584C"/>
			<stop  offset="0.3104" style="stop-color:#CC8161"/>
			<stop  offset="0.4119" style="stop-color:#DAA170"/>
			<stop  offset="0.5092" style="stop-color:#E5B87C"/>
			<stop  offset="0.6004" style="stop-color:#EBC683"/>
			<stop  offset="0.6795" style="stop-color:#EDCB85"/>
		</linearGradient>
		<path class="st7" d="M50.782,21.911c0,0,2.091-3.28,3.854-5.166c1.763-1.886,4.592-4.838,5.576-4.961
			c0.984-0.123,1.107,0.123,1.066,0.615c-0.041,0.492-5.74,8.241-5.617,8.405c0.123,0.164,0.656-0.082,1.025,0.205
			c0.369,0.287-0.041,1.025-0.451,1.353c-0.41,0.328-1.517,1.271-1.763,1.804c-0.246,0.533-0.369,1.927-1.107,1.681
			c-0.738-0.246-1.476-1.558-1.64-2.009c-0.164-0.451-1.148-0.656-1.271-1.148S50.782,21.911,50.782,21.911z"/>
		<g>
			<path d="M37.345,28.118c-0.777,1.744-1.992,3.03-3.418,4.263c-0.31,0.269,0.027,0.814,0.403,0.61
				c1.782-0.964,2.997-2.74,3.601-4.64C38.054,27.966,37.512,27.744,37.345,28.118z"/>
			<path d="M45.78,26.895c-2.229,0.381-3.291,2.042-3.489,4.186c-0.04,0.434,0.609,0.595,0.68,0.144
				c0.022-0.141,0.046-0.284,0.073-0.428c0.107,0.118,0.246,0.22,0.424,0.3c0.596,0.267,1.373,0.01,1.751-0.503
				c0.484-0.655,0.54-1.896,0.266-2.726c0.202-0.089,0.402-0.183,0.592-0.294C46.469,27.347,46.175,26.828,45.78,26.895z
				 M44.498,29.315c-0.033,0.158-0.081,0.476-0.213,0.591c-0.337,0.295-0.722-0.134-0.812-0.448
				c-0.003-0.009-0.007-0.016-0.01-0.024c0.14-0.28,0.32-0.537,0.558-0.754c0.178-0.162,0.376-0.291,0.583-0.404
				C44.591,28.617,44.564,28.998,44.498,29.315z"/>
			<path d="M84.211,52.96c-0.384-3.213-1.108-6.396-2.297-9.411c-1.372-3.48-3.258-6.729-4.763-10.149
				c-0.873-1.984-1.519-4.139-2.269-6.172c-0.791-2.144-1.43-3.916-2.147-6.106c-0.56-1.571-2.175-3.198-3.537-3.731
				c-0.445-0.174-0.829,0.346-0.651,0.88c0.371,1.114,0.619,2.225,0.546,3.311c-0.376,5.637-2.536,10.96-6.343,15.22
				c-0.061-2.483-0.789-4.815-2.505-6.647c-0.018-0.02-0.038-0.036-0.058-0.05c0.217-0.237,0.394-0.516,0.516-0.847
				c0.112-0.3-0.104-0.605-0.41-0.642c-0.652-0.079-1.302-0.191-1.95-0.314c1.65-0.737,3.075-2.252,4.583-3.152
				c0.362-0.216,0.313-0.883-0.146-0.951c-1.183-0.175-2.43-0.046-3.662,0.134c0.901-0.626,1.779-1.43,2.456-2.002
				c1.121-0.946,1.956-2.13,2.974-3.17c0.347-0.354-0.023-0.871-0.445-0.866c-1.478,0.019-2.984,0.358-4.45,0.545
				c-0.867,0.111-1.852,0.286-2.592,0.79c0.618-0.903,1.262-1.788,1.933-2.657c0.867-1.123,2.114-2.706,2.39-3.088
				c0.419-0.581,0.563-1.019,0.627-1.221c0.076-0.239,0.103-0.354,0.126-0.692s-0.139-0.833-0.852-0.851
				c-0.735-0.019-2.101,0.627-2.573,0.936c-1.174,0.769-2.227,1.728-3.18,2.755c-1.032,1.113-1.613,1.875-2.513,3.095
				c-0.042,0.057-0.285,0.454-0.408,0.628c-0.01-0.012-0.362-0.207-0.616-0.351c-0.254-0.144-0.739-0.313-0.867-0.358
				c-1.991-0.712-3.887,0.114-5.709,0.935c-0.497,0.224-1,0.422-1.505,0.605c0.227-1.082,0.455-2.164,0.675-3.248
				c0.164-0.805,0.323-1.612,0.498-2.414c0.112-0.511,0.328-1.05,0.357-1.575c0.032-0.574-0.22-1.255-0.896-1.245
				c-0.836,0.013-1.544,1.206-1.945,1.795c-0.625,0.918-1.108,1.95-1.411,3.018c-0.01,0.035-0.187,0.884-0.236,0.9
				c0.022-0.007-0.307-0.341-0.334-0.361c-0.278-0.207-0.61-0.289-0.955-0.251c-0.814,0.089-1.306,0.802-1.479,1.543
				c-0.216,0.925-0.39,1.858-0.594,2.787c-2.257,0.945-2.994,3.825-3.544,5.976c-0.444,1.733-0.69,3.623-1.518,5.227
				c-0.364,0.706-0.887,1.334-1.441,1.899c-0.327,0.333-0.725,0.624-1.063,0.958c-1.474,0.923-2.845,1.671-4.649,2.028
				c-0.251,0.05-0.611,0.023-0.735,0.362c-0.327,0.894,0.366,1.97,0.752,2.779c0.442,0.925,1.011,1.798,1.651,2.598
				c0.971,1.215,3.267,2.763,4.771,3.037c0.43,0.078,0.829-0.016,1.468-1.081c0.756-1.261,1.399-2.201,2.64-2.884
				c1.08-0.594,2.452-1.128,3.689-1.201c1.085-0.064,1.862,0.367,2.655-0.516c0.144,0.087,0.504,0.195,0.844,0.775
				c0.399,0.68,0.316,1.984,0.292,2.7c-0.026,0.805-0.149,1.599-0.302,2.388c-0.014,0.011-0.027,0.022-0.039,0.036
				c-1.632,1.799-3.308,3.79-4.442,5.956c-0.305,0.583-0.645,1.129-0.921,1.743c-0.622,0.012-1.591,1.403-1.81,1.731
				c-0.417,0.623-1.464,2.794-1.914,4.365c-0.518,1.808-0.867,3.689-0.927,5.571c-0.027,0.836-0.001,1.682,0.092,2.519
				c-0.013,0.025-0.025,0.052-0.033,0.082c-0.718,2.764-0.526,6.017,1.218,8.378c1.683,2.278,4.113,4.524,7.019,4.922
				c1.533,0.707,3.055,0.869,4.749,0.558c0.977-0.179,1.879-0.616,2.596-1.286c0.641-0.598,1.365-1.358,1.6-2.251
				c1.531-0.871,2.795-2.623,3.767-4.064c1.134-1.682,2.179-3.418,3.38-5.056c1.204-1.643,2.512-3.23,3.982-4.643
				c0.729-0.701,1.499-1.433,2.383-1.935c0.419-0.238,0.944-0.48,1.435-0.407c0.788,0.116,1.052,0.86,1.256,1.537
				c1.382,4.581-1.464,8.959-4.066,12.465c-2.129,2.868-4.408,5.614-6.857,8.21c0.052-0.902-0.15-1.819-0.563-2.662
				c-0.211-0.432-0.814-0.285-0.958,0.109c-0.695,1.906-1.81,3.756-2.803,5.523c-0.923,1.644-1.91,3.253-3.043,4.762
				c-2.175,2.896-4.879,5.167-7.995,7.023c-1.329,0.792-0.155,0.98,0.433,0.839c4.554-1.087,9.028-2.271,13.166-4.576
				c3.539-1.971,6.466-4.715,8.172-8.422c0.21-0.457-0.284-0.77-0.717-0.565c-1.282,0.609-2.426,1.009-3.714,1.247
				c3.388-4.41,7.586-8.141,11.071-12.471c3.834-4.765,8.759-12.259,4.322-18.184c-1.962-2.619-5.172-3.547-8.241-2.409
				c-3.513,1.303-5.792,4.505-8.325,7.082c-0.717,0.73-1.449,1.445-2.195,2.146c-0.348,0.327-0.698,0.651-1.052,0.973
				c-0.358,0.326-0.849,0.977-1.307,1.116c-0.713,0.217-0.677-0.41-0.65-0.881c0.024-0.435,0.072-0.87,0.138-1.3
				c0.16-1.049,0.448-2.08,0.806-3.078c1.367-3.818,3.796-7.159,6.009-10.519c1.109-1.683,2.166-3.413,2.992-5.237
				c0.503-0.676,1.007-1.351,1.51-2.027c0.847-0.659,1.728-1.113,2.789-1.342c0.458-0.099,1.174-0.303,1.633-0.12
				c0.673,0.268,0.737,1.022,0.793,1.648c0.209,2.347-0.188,4.666-0.067,7.005c0.037,0.708,0.547,0.538,0.695,0.075
				c0.338-1.06,0.577-2.134,1.088-3.122c0.325-0.629,1.103-1.901,1.99-1.131c0.399,0.346,0.852,1.638,1.156,3.092
				c0.303,1.454,1.395,4.954,2.289,7.692c0.177,0.542,0.725,0.399,0.808-0.142c0.007-0.026,0.207-1.73,0.347-3.092
				c0.07-0.679,0.217-2.529,0.277-2.768c0.057-0.225,0.38-0.198,0.475-0.062c1.425,2.049,2.694,4.881,3.473,7.25
				c1.582,4.811,1.708,9.834,0.997,14.807c-0.006,0.019-0.012,0.038-0.018,0.057c-0.023,0.072-0.028,0.136-0.02,0.194
				c-0.011,0.076-0.022,0.151-0.034,0.227c-0.068,0.444,0.552,0.613,0.684,0.171c0.017-0.058,0.033-0.117,0.05-0.175
				c0.066-0.049,0.122-0.117,0.157-0.208C84.555,66.252,84.981,59.396,84.211,52.96z M71.328,21.31
				c-0.001,0.024,0.003,0.046,0.005,0.068c-0.431,0.452-0.611,0.6-1.186,0.918c-0.005-1.044-0.068-1.725-0.292-3.394
				C70.654,19.528,71.351,20.418,71.328,21.31z M44.186,45.852c0.493-1.56,0.469-4.223,0.308-4.92
				c-0.226-0.973-0.533-1.49-0.946-1.836c-0.46-0.386-0.699-0.513-0.767-0.556c0.304-0.848,0.452-1.781,1.327-1.951
				c0.986-0.191,1.978,0.399,2.989,0.146c1.056-0.265,1.489-1.227,1.95-2.118c0.553-1.068,1.011-1.928,1.561-2.998
				c1.23,1.769,1.893,3.891,1.637,6.045c-0.294,2.469-2.282,4.111-3.97,5.77c-1.091,1.072-2.063,2.151-3.153,3.223
				c-0.141,0.138-1.077,0.885-1.511,1.283C43.719,47.375,43.892,46.781,44.186,45.852z M40.095,51.415
				c0.705-1.182,1.645-2.252,2.417-3.407c-0.008,0.328-0.03,0.103-0.02,0.941c0.01,0.839,0.415,0.821,0.931,0.434
				c0.296-0.222,2.18-1.656,2.878-2.318c1.321-1.253,2.672-2.482,3.957-3.771c1-1.004,1.923-2.11,2.568-3.343
				c0.008,1.694-0.065,3.517-0.707,4.838c-0.932,1.918-2.776,4.053-4.257,5.571c-0.476,0.487-0.964,0.959-1.461,1.421
				c-0.039,0.027-0.075,0.06-0.107,0.099c-2.684,2.482-5.433,4.339-8.191,6.742C38.081,55.979,38.75,53.669,40.095,51.415z
				 M34.321,64.326c0.109-1.731,0.413-3.452,0.895-5.117c0.366-1.264,1.121-3.021,1.52-3.701c0.399-0.68,0.598-0.96,0.737-1.087
				c-0.429,1.773-0.523,3.613-0.426,5.475c0.021,0.4,0.45,0.595,0.762,0.34c2.51-2.059,5.471-4.161,7.949-6.234
				c-1.035,3.164-1.95,6.671-3.384,9.697c-1.507,3.181-4.447,5.543-6.131,8.574C34.437,70.148,34.149,67.064,34.321,64.326z
				 M41.065,79.345c-2.397-0.752-4.362-2.494-5.795-4.553c-0.877-1.26-1.177-2.674-1.308-4.129c0.445,1.102,1.005,1.954,1.859,2.84
				c0.343,0.356,0.981,0.46,1.18-0.014c0.844-2.007,2.405-3.516,3.831-5.113c0.631-0.706,1.208-1.443,1.724-2.22
				c0.235,1.771,0.802,3.54,0.609,5.336c-0.165,1.533-0.954,2.977-1.373,4.451C41.473,77.065,41.259,78.2,41.065,79.345z
				 M45.66,80.096c-0.708,0.105-1.446,0.086-2.159,0.061c-0.406-0.014-0.963-0.155-1.336-0.419c0.122-1.537,0.462-2.682,0.966-4.136
				c0.281-0.811,0.636-1.602,0.911-2.416c0.498,1.368,1.149,2.549,2.272,3.611c0.683,0.645,1.392,1.123,2.146,1.264
				C47.683,78.961,46.956,79.905,45.66,80.096z M56.451,50.097c-1.916,2.839-3.907,5.665-5.223,8.848
				c-0.671,1.624-1.151,3.338-1.316,5.091c-0.098,1.041-0.044,2.508,1.269,2.713c1.42,0.221,2.811-1.578,3.706-2.421
				c1.356-1.278,2.662-2.609,3.929-3.976c2.402-2.592,5.509-6.169,9.488-5.45c3.673,0.664,5.283,4.623,5.011,7.976
				c-0.317,3.907-2.601,7.287-4.815,10.388c-3.588,5.025-8.645,8.837-12.211,13.872c-0.034,0.049-0.498,0.52-0.699,0.758
				c-0.236,0.28-0.123,0.753,0.388,0.66c1.493-0.274,2.894-0.572,4.233-1.147c-3.57,5.439-10.068,8.41-16.329,10.179
				c1.882-1.324,3.521-3.002,4.914-4.831c1.248-1.639,2.33-3.406,3.297-5.223c0.786-1.477,1.42-3.06,2.18-4.559
				c0.036,0.829-0.238,2.313-0.301,2.659c-0.176,0.962,0.229,1.089,0.737,0.622c2.96-2.721,5.48-5.947,7.916-9.133
				c2.518-3.293,5.202-6.857,5.576-11.13c0.142-1.62-0.022-3.955-1.239-5.191c-1.295-1.315-3.233-0.662-4.532,0.279
				c-3.419,2.477-5.91,6.106-8.097,9.652c-1.205,1.955-2.363,4.032-4.168,5.508c-0.849,0.694-1.491,0.856-2.418,0.211
				c-0.455-0.317-0.868-0.709-1.244-1.115c-0.851-0.92-1.688-2.083-2.101-3.272c-0.01-0.028-0.021-0.052-0.035-0.075
				c0.032-0.17,0.059-0.342,0.077-0.517c0.266-2.521-0.714-4.962-0.666-7.483c0.026-0.056,0.055-0.111,0.081-0.168
				c1.638-3.6,2.344-7.565,3.584-11.307c0.016-0.049,0.025-0.098,0.029-0.145c0.652-0.596,1.268-1.23,1.911-1.845
				c2.779-2.659,4.296-5.504,4.647-8.128c0.256-1.916,0.038-2.896-0.33-4.735c-0.001-0.003-0.004-0.004-0.005-0.007
				c-0.222-2.353-0.803-5.178-2.387-7.208c-0.005-0.007-0.074-0.102-0.081-0.108c-0.186-0.385-0.947-0.671-1.204-0.183
				c-0.676,1.28-1.16,2.266-1.819,3.555c-0.305,0.597-0.595,1.468-1.213,1.778c-0.573,0.287-1.183,0.084-1.791-0.001
				c-0.765-0.108-1.57-0.161-2.236,0.306c-0.831,0.583-0.866,1.584-1.223,2.44c-0.377,0.903-1.064,0.578-1.836,0.528
				c-0.492-0.032-0.979,0.087-1.454,0.199c-1.045,0.247-2.066,0.599-3.009,1.116c-0.798,0.437-1.527,1.002-2.109,1.705
				c-0.266,0.321-0.497,0.674-0.679,1.049c-0.093,0.192-0.516,1.085-0.748,1.364c-0.296,0.007-3.299-2.148-4.214-3.251
				c-0.895-1.079-1.929-2.882-2.021-3.559c1.751-0.218,3.876-0.908,5.174-2.191c0.811-0.481,1.54-1.315,2.047-1.971
				c0.947-1.224,1.384-2.672,1.77-4.151c0.677-2.593,0.983-5.641,3.104-7.433c0.388-0.304,0.896-0.519,1.017-0.853
				c0.12-0.335,0.174-0.867,0.294-1.328c0.103-0.396,0.131-0.801,0.217-1.197c0.171-0.788,0.168-1.071,0.892-0.741
				c1.513,0.691,1.814-0.503,2.21-1.77c0.304-0.974,0.762-1.889,1.359-2.716c0.172-0.238,0.771-0.897,0.735-0.983
				c0.134,0.325-0.313,1.369-0.404,1.717c-0.525,2.018-1.002,4.05-1.564,6.058c-1.255,0.393-1.664,0.627-2.927,1.047
				c-0.317,0.106-0.223,0.626,0.1,0.643c1.993,0.103,3.098-0.357,4.952-1.054c1.965-0.738,3.889-1.975,6.083-1.43
				c0.293,0.073,0.744,0.305,1.101,0.515c-0.901,1.241-2.197,2.933-2.477,2.696c-0.31-0.261-0.68,0.213-0.453,0.505
				c0.637,0.819,1.58,0.053,2.091-0.506c1.175-1.284,2.169-2.732,3.237-4.103c1.013-1.299,2.067-2.578,3.291-3.685
				c0.66-0.598,1.371-1.144,2.134-1.605c0.454-0.274,0.919-0.47,1.392-0.649c0.021,0.148,0.021,0.353-0.433,1.034
				c-0.531,0.798-0.945,1.247-1.505,2.006c-0.498,0.675-1.084,1.339-1.593,2.006c-0.944,1.238-1.701,2.151-2.305,3.291
				c-0.21,0.395-0.168,0.846,0.271,0.861c0.053,0.002,0.589-0.11,0.881-0.084c0.149,0.013,0.242,0.204,0.172,0.361
				c-0.245,0.55-1.542,1.559-1.87,1.892c-0.636,0.646-1.412,2.247-1.807,1.867c-0.16-0.176-0.304-0.665-0.388-0.88
				c-0.117-0.299-0.198-0.564-0.365-0.824c-0.236-0.365-0.731-0.088-0.721,0.37c0.008,0.361,0.054,0.753,0.213,1.355
				s0.459,0.914,1.177,1.058c0.343,0.069,1.141-0.223,1.329-0.641c0.486-1.084,1.042-1.585,1.936-2.363
				c0.489-0.426,1.146-1.044,1.373-1.675c0.257-0.718,0.246-1.138-0.282-1.171c1.068-0.31,2.021-0.699,3.17-0.802
				c0.919-0.083,1.827-0.236,2.739-0.37c-1.394,1.772-4.389,4.195-6.369,5.195c-0.012,0.006-0.014,0.013-0.025,0.019
				c-0.356,0.118-0.288,0.701,0.132,0.669c1.398-0.106,2.851,0.02,4.271-0.016c-0.646,0.49-1.322,0.952-1.981,1.384
				c-0.979,0.641-2.078,1.154-3.275,1.047c-0.48-0.043-0.65,0.759-0.159,0.852c0.038,0.007,0.077,0.014,0.115,0.022c0,0,0,0,0,0
				c0.001,0,0.002,0,0.003,0c1.226,0.232,2.469,0.43,3.686,0.714c-1.217,1.17-3.464,0.683-4.791-0.078
				c-0.576-0.33-0.997,0.501-0.493,0.873c0.349,0.258,0.786,0.474,1.266,0.636c0.194,0.622,0.446,1.223,0.674,1.835
				c-1.263-0.627-2.268-1.49-2.878-2.924c-0.142-0.334-0.782-0.278-0.677,0.13c0.527,2.039,2.169,4.033,4.434,4.151
				c0.445,0.023,0.678-0.203,0.533-0.597c-0.276-0.752-0.518-1.566-0.854-2.317c1.038,0.127,2.122-0.001,2.936-0.493
				c0.008,0.017,0.015,0.033,0.026,0.049C63.816,37.109,60.282,44.42,56.451,50.097z M62.325,40.838
				c0.12-0.5,0.22-1.007,0.292-1.524c0.058-0.419,0.099-0.845,0.122-1.274c3.938-3.883,6.926-8.868,7.196-14.479
				c0.842-0.281,2.035-1.144,2.182-1.519c0.455,1.378,0.74,2.508,1.209,3.88c0.585,1.709,1.193,3.411,1.846,5.096
				c1.349,3.479,3.031,6.786,4.585,10.172c1.242,2.705,2.895,6.942,3.139,9.801C80.9,44.755,71.927,26.614,71.789,26.373
				s-0.211-0.399-0.294-0.435c-0.225-0.148-0.601-0.086-0.67,0.237C69.612,31.805,65.658,36.195,62.325,40.838z M68.195,40.54
				c-1.025-1.258-2.803-0.815-4.276-0.012c1.122-1.524,2.229-3.058,3.293-4.624c1.369-2.013,3.047-4.34,3.901-6.799
				c-0.119,3.188-0.551,6.47-1.228,9.684c-0.29,1.378-0.877,4.14-1.249,5.537C68.672,43.411,68.987,41.511,68.195,40.54z
				 M71.468,44.016c-0.787-0.183-1.332,0.076-2.012,1.156c0.138-0.531,1.156-4.723,1.478-6.265c0.486-2.329,1.055-6.671,1.032-8.986
				c0.071,0.794,0.432,3.32,0.469,4.083c0.154,3.121,0.039,6.206,0.176,9.327c0.025,0.565,0.132,1.742,0.176,2.305
				C72.61,45.177,72.227,44.192,71.468,44.016z M82.923,65.568c-0.066-3.802-0.957-7.623-2.433-11.055
				c-0.631-1.468-1.374-2.892-2.213-4.251c-0.437-0.709-1.06-2.04-2.13-1.623c-1.09,0.424-0.953,2.22-0.989,3.128
				c-0.006,0.161-0.004,0.587-0.013,0.748c-0.09-0.29-0.436-1.76-0.64-2.985c-0.425-2.558-0.711-5.135-0.794-7.726
				c-0.122-3.805-0.038-7.622-0.744-11.317c3.758,7.743,8.549,17.694,10.017,26.437C83.51,60.047,83.154,64.155,82.923,65.568z"/>
		</g>
	</g>
</g>
</svg>
