<?xml version="1.0" encoding="utf-8"?>
<!-- Generator: Adobe Illustrator 23.0.6, SVG Export Plug-In . SVG Version: 6.00 Build 0)  -->
<svg version="1.1" xmlns="http://www.w3.org/2000/svg" xmlns:xlink="http://www.w3.org/1999/xlink" x="0px" y="0px"
	 viewBox="0 0 108 108" style="enable-background:new 0 0 108 108;" xml:space="preserve">
<style type="text/css">
	.st0{display:none;}
	.st1{display:inline;}
	.st2{fill:#E6E6E6;}
	.st3{fill:url(#SVGID_1_);}
	.st4{fill:#FDD059;}
	.st5{fill:#CC0F14;}
	.st6{fill:url(#SVGID_2_);}
	.st7{fill:url(#SVGID_3_);}
	.st8{fill:#E06F72;}
	.st9{fill:url(#SVGID_4_);}
	.st10{fill:#1A1A1A;}
</style>
<g id="_x37_2x72" class="st0">
	<g class="st1">
		<path class="st2" d="M90,18v72H18V18H90 M90.5,17.5H90H18h-0.5V18v72v0.5H18h72h0.5V90V18V17.5L90.5,17.5z"/>
	</g>
</g>
<g id="Layer_4" class="st0">
</g>
<g id="Layer_2">
	<g>
		<linearGradient id="SVGID_1_" gradientUnits="userSpaceOnUse" x1="66.0816" y1="35.5863" x2="66.8949" y2="57.4189">
			<stop  offset="0.1263" style="stop-color:#CC0F14"/>
			<stop  offset="0.1707" style="stop-color:#D32A1E"/>
			<stop  offset="0.2637" style="stop-color:#E05C30"/>
			<stop  offset="0.3557" style="stop-color:#EA863E"/>
			<stop  offset="0.4448" style="stop-color:#F2A64A"/>
			<stop  offset="0.5301" style="stop-color:#F8BD52"/>
			<stop  offset="0.6101" style="stop-color:#FCCB57"/>
			<stop  offset="0.6795" style="stop-color:#FDD059"/>
		</linearGradient>
		<path class="st3" d="M60,44.85c0,0,1.89-2.54,3.24-4.97c1.35-2.43,2.15-4.69,2.15-4.69s1.59,3.78,2.23,4.85
			c0.64,1.08,3.35,6.57,3.86,8.21c0.52,1.63,1.59,5.66,1.75,7.25c0.16,1.59-0.6,6.21-0.6,6.33c0,0.12-0.08-2.39-0.8-4.7
			c-0.72-2.31-2.47-6.45-2.91-6.69c-0.44-0.24-0.72,0-0.8,0.32c-0.08,0.32-0.2,3.23-0.2,3.23s-1.08-3.7-1.27-4.5
			s-0.8-1.71-1.12-1.99c-0.32-0.28-0.88-0.76-1.35-0.04c-0.48,0.72-1.16,1.67-1.16,1.67s0.45-2.93,0.29-3.56s-0.61-1.51-1.96-1.14
			C60.73,44.59,60,44.85,60,44.85z"/>
		<path class="st4" d="M63.85,32.87c0,0,0.05-2.62-0.04-2.77c-0.09-0.16,1.01,0.35,1.22,0.88c0.21,0.53,0.35,1.41,0.35,1.41
			s-0.61,0.56-0.85,0.61C64.29,33.04,63.85,32.87,63.85,32.87z"/>
		<path class="st4" d="M46.26,43.07c0,0,1.12,1.01,1.06,2.66c-0.02,0.62-0.15,1.85-0.46,2.46c-0.53,1.01-0.98,0.96-1.51,1.87
			c-0.53,0.91-1.74,2.47-1.9,2.79c-0.16,0.32-0.96,0.53-1.43,1.65c-0.48,1.12-1.33,3.45-1.41,4.73c-0.08,1.27-0.16,3.43-0.16,3.43
			s-0.4-0.56-0.16,0.96c0.24,1.51,0.72,4.14,2.31,5.26c1.59,1.12,3.15,1.79,5.38,1.63c2.23-0.16,2.59-1.71,2.59-1.71
			s-0.4-0.24-1.83-1.51s-1.75-3.66-1.75-3.66l-0.24-3.19l1.51-5.26l0.8-2.87c0,0,2.79-2.87,3.66-4.78c0.88-1.91,1.27-4.38,1.27-4.38
			s0.04-1.91-0.84-3.58c-0.88-1.67-1.39-1.67-1.39-1.67l-1.91,3.27c0,0,0,0.64-0.88,0.48c-0.88-0.16-1.51-0.4-2.07,0
			S46.26,43.07,46.26,43.07z"/>
		<path class="st5" d="M59.2,42.75c0,0,2.47-1.75,3.35-4.14c0.88-2.39,1.35-5.02,1.35-5.02s0.32-0.32,0.8-0.72s1-0.86,1-0.86
			s2.66,7.87,3.14,8.59c0.48,0.72,3.51,7.49,3.51,7.49l0.56,3.51l-2.15-4.94l-3.88-7.93c0,0-1.46-3.22-1.7-3.46
			s-0.64,2.63-1.04,3.27c-0.4,0.64-1.51,2.47-2.55,3.74c-1.04,1.27-2.87,3.58-2.87,3.58L59.2,42.75z"/>
		<path class="st5" d="M38.53,46.83c0,0-1.67-0.6-2.51-2.27c-0.84-1.67-1.08-2.39-1.08-2.39s2.19-0.46,2.63-0.72
			c1.43-0.84,2.63-2.48,3.23-4.3c0.6-1.83,1.51-4.62,2.15-5.14s1.43,0.24,1.43,0.24s3.11-1.08,4.66-1.43
			c1.55-0.36,2.27-0.84,2.75-0.48l3.35,0.84c0,0,2.15-0.5,3.47-0.6c1.46-0.11,1.43,0.13,1.43,0.13l-4.1,3.68
			c0,0,2.83,0.07,3.19,0.07c0.36,0-3.03,1.86-3.03,1.86l-0.76,0.29l2.43,0.42c0,0,0.48,2.87,0.96,3.7c0.48,0.84,0.36,4.06-0.48,5.5
			c-0.84,1.43-3.58,5.86-4.54,7.53c-0.96,1.67-2.27,3.94-2.15,5.62c0.12,1.67,0.48,2.27,1.91,1.08s4.66-5.74,5.97-6.33
			c1.31-0.6,3.11-1.19,4.66-0.36c1.55,0.84,2.75,2.27,2.63,4.06c-0.12,1.79-0.72,5.02-3.11,7.89c-2.39,2.87-7.53,8.6-7.77,8.96
			s2.63-0.36,2.63-0.36s-1.08,2.15-2.27,3.11s-4.18,2.99-5.14,3.35c-0.96,0.36-4.9,1.31-4.9,1.31s3.47-2.87,4.42-4.54
			s3.35-6.45,3.35-6.45l0.24,2.27c0,0,0.48-0.12,2.27-2.15c1.79-2.03,5.26-6.81,5.74-8.48c0.48-1.67,0.48-4.18-0.24-4.66
			c-0.72-0.48-2.99,0.36-3.94,1.55s-4.42,5.62-4.78,6.33c-0.36,0.72-1.43,2.27-2.51,2.27s-2.75-0.72-2.99-2.03
			c-0.24-1.31-1.08-5.62-1.08-5.62s1.79-5.5,1.91-6.45s0.72-2.03,0.72-2.03s3.82-2.99,4.06-4.78c0.24-1.79,0.42-2.8,0.4-4.54
			c-0.04-2.49-2.07-5.02-2.07-5.02l-2.03,3.82h-1.67c0,0-0.96-0.36-1.08,0.24c-0.12,0.6-1.08,1.79-1.08,1.79s-1.67,0-2.27,0.24
			c-0.6,0.24-1.91,0.84-2.39,1.43c-0.48,0.6-1.19,1.79-1.19,1.79L38.53,46.83z"/>
		<linearGradient id="SVGID_2_" gradientUnits="userSpaceOnUse" x1="47.2956" y1="36.8722" x2="47.9079" y2="38.2648">
			<stop  offset="0.1263" style="stop-color:#CC0F14"/>
			<stop  offset="0.1635" style="stop-color:#D1241B"/>
			<stop  offset="0.2976" style="stop-color:#E36A34"/>
			<stop  offset="0.3944" style="stop-color:#EE9544"/>
			<stop  offset="0.4434" style="stop-color:#F2A64A"/>
			<stop  offset="0.4452" style="stop-color:#F2A64A"/>
			<stop  offset="0.6457" style="stop-color:#F8BD52"/>
			<stop  offset="0.8345" style="stop-color:#FCCB57"/>
			<stop  offset="0.9982" style="stop-color:#FDD059"/>
		</linearGradient>
		<path class="st6" d="M48.35,37.71c-0.09,0.51-0.5,0.87-0.91,0.79c-0.41-0.07-0.67-0.55-0.57-1.06c0.09-0.51,0.5-0.87,0.91-0.79
			C48.18,36.72,48.44,37.2,48.35,37.71z"/>
		<linearGradient id="SVGID_3_" gradientUnits="userSpaceOnUse" x1="44.6369" y1="32.2966" x2="47.0953" y2="25.6537">
			<stop  offset="0.0779" style="stop-color:#CC0F14"/>
			<stop  offset="0.7857" style="stop-color:#FDD059"/>
		</linearGradient>
		<path class="st7" d="M43.56,31.38c0,0,0.21-1.99,0.58-2.1s1.06,0.24,1.06,0.24s0.61-0.03,0.69-0.72c0.08-0.69,0.5-1.81,0.93-2.28
			s0.64-0.9,0.88-0.8c0.24,0.11,0.11,0.93,0.11,1.12c0,0.19-1.12,4.51-1.12,4.51s-1.89,0.6-2.15,0.72c-0.24,0.1-0.98-0.09-1-0.27
			C43.52,31.62,43.56,31.38,43.56,31.38z"/>
		<g>
			<path class="st8" d="M58.49,46.33c0.84-1.43,0.58-4.42,0.48-5.5s-1.35-3.65-1.35-3.65l-0.68-0.25c-0.7,0.4-1.36,0.76-1.36,0.76
				L54.81,38l1.58,0.24c0,0,0.92,1.05,1.32,2.65c0.27,1.09,0.53,5.05,0.05,6.68C58.06,47.06,58.31,46.63,58.49,46.33z"/>
			<path class="st8" d="M43.86,33.64c0,0,3.11-1.08,4.66-1.43c1.55-0.36,2.27-0.84,2.75-0.48l3.35,0.84c0,0,2.15-0.5,3.47-0.6
				c0.42-0.03,0.72-0.03,0.93-0.02l1.27-1.14c0,0,0.03-0.24-1.43-0.13c-1.32,0.1-3.47,0.6-3.47,0.6l-3.35-0.84
				c-0.48-0.36-1.26-0.18-2.81,0.18c-1.55,0.36-4.58,1.37-4.58,1.37s-0.81-0.4-1.45,0.12c-0.23,0.19-0.49,0.67-0.77,1.29
				C43.06,32.89,43.86,33.64,43.86,33.64z"/>
			<path class="st8" d="M50.07,78.93c0.12-0.21,0.27-0.48,0.43-0.78c-1.25,1.69-4.08,4.03-4.08,4.03s0.39-0.1,0.96-0.24
				C48.39,81,49.57,79.8,50.07,78.93z"/>
			<path class="st8" d="M57.39,35.82c0.96-0.54,2.2-1.27,1.97-1.27c-0.25,0-1.67-0.03-2.53-0.05l-1.42,1.28
				C55.41,35.78,56.48,35.8,57.39,35.82z"/>
			<path class="st8" d="M64.34,53.86c-1.55-0.84-3.35-0.24-4.66,0.36c-1.31,0.6-4.54,5.14-5.97,6.33c-1.43,1.19-1.79,0.6-1.91-1.08
				c-0.12-1.67,1.19-3.94,2.15-5.62c0.07-0.12,0.15-0.26,0.23-0.4c-0.41,0.68-0.76,1.27-1,1.69c-0.96,1.67-2.27,3.94-2.15,5.62
				c0.12,1.67,0.48,2.27,1.91,1.08c1.43-1.19,4.66-5.74,5.97-6.33c1.31-0.6,3.11-1.19,4.66-0.36c1.55,0.84,2.75,2.27,2.63,4.06
				c-0.09,1.32-0.43,3.4-1.56,5.56c1.75-2.58,2.22-5.27,2.33-6.85C67.09,56.13,65.9,54.69,64.34,53.86z"/>
			<path class="st8" d="M37.04,42.84c1.13-0.66,2.11-1.82,2.77-3.17c-0.57,0.79-1.25,1.44-2,1.88c-0.44,0.26-2.63,0.72-2.63,0.72
				s0.11,0.32,0.42,1.02C36.2,43.14,36.83,42.97,37.04,42.84z"/>
			<path class="st8" d="M54.96,75.76c-0.24,0.36,2.99-0.06,2.99-0.06s-0.03,0.06-0.08,0.15c0.51-0.76,0.85-1.44,0.85-1.44
				s-1.71,0.43-2.38,0.46C55.77,75.52,55.02,75.67,54.96,75.76z"/>
			<path class="st8" d="M61.09,65.38c-1.3,2.05-3.21,4.58-4.39,5.92c-1.79,2.03-2.27,2.15-2.27,2.15l-0.24-2.27
				c0,0-0.31,0.62-0.75,1.49l0.47,1.46c0,0,0.23,0.5,2.02-1.53C57.37,70.95,59.91,67.52,61.09,65.38z"/>
		</g>
		<linearGradient id="SVGID_4_" gradientUnits="userSpaceOnUse" x1="52.3587" y1="34.209" x2="59.2466" y2="25.188">
			<stop  offset="0" style="stop-color:#CC0F14"/>
			<stop  offset="0.7046" style="stop-color:#FDD059"/>
		</linearGradient>
		<path class="st9" d="M51.74,32.57c0,0,1.35-2.12,2.5-3.35s2.97-3.13,3.61-3.21s0.72,0.08,0.69,0.4s-3.72,5.34-3.64,5.44
			c0.08,0.11,0.42-0.05,0.66,0.13s-0.03,0.66-0.29,0.88c-0.27,0.21-0.98,0.82-1.14,1.17c-0.16,0.35-0.24,1.25-0.72,1.09
			c-0.48-0.16-0.96-1.01-1.06-1.3c-0.11-0.29-0.74-0.42-0.82-0.74C51.45,32.75,51.74,32.57,51.74,32.57z"/>
		<g>
			<g>
				<path class="st10" d="M50.87,32.68c-0.2-0.17-0.44,0.14-0.29,0.33c0.41,0.53,1.03,0.03,1.36-0.33c0.76-0.83,1.41-1.77,2.1-2.66
					c0.66-0.84,1.34-1.67,2.14-2.39c0.43-0.39,0.89-0.74,1.38-1.04c0.53-0.32,1.08-0.48,1.65-0.7c0.29-0.11,0.25-0.48-0.03-0.57
					c-0.74-0.24-1.62,0.36-2.23,0.76c-0.76,0.5-1.44,1.12-2.06,1.79c-0.67,0.72-1.26,1.51-1.85,2.3
					C52.84,30.41,51.13,32.9,50.87,32.68z"/>
				<path class="st10" d="M42.89,36.6c-0.5,1.13-1.29,1.97-2.22,2.77c-0.2,0.17,0.02,0.53,0.26,0.4c1.16-0.63,1.94-1.78,2.34-3.01
					C43.35,36.5,43,36.36,42.89,36.6z"/>
				<path class="st10" d="M55.87,30.98c0.4-0.59,0.82-1.16,1.25-1.72c0.62-0.81,1.34-1.52,1.65-2.5c0.09-0.28-0.28-0.41-0.41-0.16
					c-0.28,0.51-0.82,0.93-1.2,1.36c-0.36,0.41-0.71,0.83-1.04,1.26c-0.61,0.8-1.18,1.64-1.72,2.49c-0.19,0.3,0.12,0.6,0.4,0.61
					c0.05,0,0.48-0.01,0.49,0.02c0.02,0.04-0.31,0.32-0.34,0.35c-0.22,0.21-0.46,0.39-0.67,0.6c-0.41,0.42-0.75,0.91-1.01,1.43
					c-0.06-0.02-0.12-0.02-0.18-0.09c-0.1-0.11-0.14-0.3-0.19-0.44c-0.08-0.19-0.19-0.32-0.3-0.49c-0.15-0.24-0.55-0.06-0.41,0.2
					c0.07,0.12,0.05,0.32,0.06,0.46c0.01,0.14,0.04,0.28,0.07,0.42c0.07,0.26,0.21,0.47,0.45,0.61c0.2,0.12,0.45,0.19,0.69,0.14
					c0.07-0.02,0.14-0.05,0.2-0.08c0.12-0.02,0.23-0.08,0.3-0.22c0.33-0.7,0.77-1.23,1.35-1.73c0.32-0.28,0.65-0.54,0.8-0.95
					c0.17-0.47,0.05-0.72-0.2-0.86c0.73-0.21,1.38-0.47,2.17-0.53c0.45-0.03,0.91-0.05,1.36-0.1c-1.01,0.93-2.19,1.74-3.28,2.52
					c-0.26,0.19-0.03,0.59,0.26,0.43c1.6-0.89,2.86-2.08,4.25-3.26c0.22-0.19,0.14-0.68-0.22-0.6c-0.96,0.19-1.92,0.22-2.89,0.34
					C56.99,30.54,56.35,30.65,55.87,30.98z"/>
				<path class="st10" d="M48.33,48.22c-0.26,0.25-0.51,0.51-0.77,0.76c-0.06,0.06-0.21,0.26-0.29,0.37
					c0.02-0.08,0.04-0.15,0.06-0.23c0.18-0.73,0.37-1.45,0.45-2.19c0.11-0.96,0.14-2.72-1-3.09c-0.13-0.04-0.28,0.14-0.19,0.26
					c0.57,0.74,0.46,2.06,0.34,2.93c-0.06,0.47-0.16,0.93-0.26,1.39c-0.08,0.36-0.26,0.81-0.23,1.18c0.04,0.46,0.44,0.72,0.88,0.56
					c0.32-0.12,0.56-0.41,0.79-0.63c0.36-0.34,0.72-0.68,1.08-1.02c2.01-1.91,6.1-4.96,4.33-8.21c-0.25-0.46-0.95-0.16-0.75,0.33
					c0.6,1.53-0.05,3.01-1.06,4.2C50.67,46.04,49.46,47.1,48.33,48.22z"/>
				<path class="st10" d="M37.39,47.2c0.19-0.16-0.07-0.45-0.27-0.33c-1.38,0.83-1.99,2.37-1.89,3.94c0.06,1.03,0.26,2.04,0.28,3.07
					c0.02,0.65,0.13,3.35-0.93,3.29c-0.4-0.02-0.37,0.58,0.02,0.62c1.89,0.18,1.55-3.48,1.46-4.56c-0.09-1.11-0.39-2.26-0.24-3.37
					C35.96,48.75,36.56,47.89,37.39,47.2z"/>
				<path class="st10" d="M40.72,52.39c0.73-1.58,1.74-5.01,0.49-6.69c0.27-0.28,0.58-0.51,0.95-0.72c0.7-0.39,1.59-0.73,2.39-0.78
					c0.73-0.04,1.25,0.27,1.78-0.4c0.43-0.54,0.37-1.67,1.14-1.82c0.64-0.12,1.28,0.26,1.94,0.09c0.69-0.17,0.97-0.8,1.27-1.37
					c0.47-0.9,0.95-1.8,1.41-2.71c0.22-0.44-0.44-0.82-0.67-0.38c-0.44,0.83-0.86,1.67-1.29,2.51c-0.2,0.39-0.39,0.95-0.79,1.15
					c-0.37,0.19-0.77,0.05-1.16,0c-0.5-0.07-1.02-0.1-1.45,0.2c-0.54,0.38-0.56,1.03-0.79,1.58c-0.24,0.59-0.69,0.37-1.19,0.34
					c-0.32-0.02-0.64,0.06-0.94,0.13c-0.68,0.16-1.34,0.39-1.95,0.72c-0.44,0.24-0.85,0.55-1.2,0.92c-0.22-0.14-0.48-0.25-0.77-0.33
					c-0.27-0.07-0.42,0.32-0.15,0.42c0.23,0.08,0.42,0.19,0.59,0.32c-0.1,0.15-0.2,0.3-0.27,0.46c-0.06,0.13-0.21,0.75-0.36,0.93
					c-0.03-0.05-0.08-0.09-0.15-0.12c-1.13-0.5-1.98-1.21-2.73-2.2c-0.34-0.45-0.64-0.94-0.9-1.44c-0.15-0.3-0.26-0.63-0.44-0.91
					c1.15-0.08,2.56-0.39,3.4-1.22c0.53-0.31,1-0.85,1.33-1.28c0.61-0.79,0.9-1.73,1.15-2.69c0.44-1.68,0.64-3.66,2.01-4.82
					c0.04-0.01,0.18-0.13,0.2-0.16c0.05-0.04,0.11-0.08,0.17-0.11c0.13-0.09,0.17-0.22,0.15-0.34c0.14-0.24,0.25-0.5,0.33-0.8
					c0.07-0.26,0.09-0.52,0.14-0.78c0.11-0.51,0.11-0.7,0.58-0.48c0.98,0.45,1.18-0.33,1.43-1.15c0.2-0.63,0.49-1.23,0.88-1.76
					c0.12-0.16,0.5-0.58,0.47-0.64c0.09,0.23-0.2,0.9-0.27,1.13c-0.36,1.31-0.7,2.62-1.07,3.93c-0.79,0.25-1.59,0.47-2.39,0.73
					c-0.21,0.07-0.14,0.41,0.06,0.42c0.87,0.04,1.73-0.11,2.57-0.35c0.25-0.08,0.42-0.13,0.42-0.13s0.52-0.18,0.78-0.27
					c1.27-0.48,2.54-1.34,3.95-0.93c0.45,0.13,0.7-0.63,0.26-0.79c-1.29-0.46-2.52,0.07-3.7,0.61c-0.34,0.15-0.69,0.29-1.04,0.42
					c0.36-1.51,0.79-3.03,1.03-4.56c0.06-0.39-0.01-0.95-0.51-0.98c-0.53-0.03-0.98,0.72-1.24,1.08c-0.44,0.62-0.77,1.32-0.98,2.05
					c-0.03,0.11-0.05,0.43-0.13,0.49c-0.14,0.11-0.02-0.01-0.18-0.09c-0.25-0.13-0.38-0.25-0.68-0.21c-0.53,0.06-0.84,0.52-0.96,1
					c-0.14,0.6-0.25,1.2-0.38,1.81c-1.47,0.61-1.94,2.48-2.3,3.88c-0.29,1.12-0.45,2.35-0.98,3.39c-0.24,0.46-0.58,0.87-0.93,1.23
					c-0.21,0.22-0.47,0.4-0.69,0.62c-0.96,0.6-1.83,1.24-3.02,1.32c-0.08,0.01-0.13,0.04-0.17,0.09c-0.12-0.07-0.27,0.03-0.3,0.14
					c-0.19,0.59,0.2,1.3,0.45,1.82c0.29,0.6,0.66,1.17,1.07,1.69c0.63,0.79,1.96,2.42,3.13,1.95c0.04-0.02,0.08-0.04,0.12-0.07
					c0.43,0.1,0.66-0.23,0.84-0.63c0.11-0.24,0.23-0.46,0.37-0.66c0.5,0.97,0.27,2.38,0.06,3.4c-0.33,1.58-0.89,2.98-1.9,4.25
					c-0.86,1.09-1.55,2.12-1.78,3.52c-0.24,1.46,0,2.91,0.24,4.35c0.05,0.31,0.5,0.19,0.47-0.11c-0.18-1.7-0.37-3.6,0.26-5.23
					C38.73,54.87,40.05,53.83,40.72,52.39z"/>
				<path class="st10" d="M73.48,52.6c-0.25-2.08-0.72-4.15-1.49-6.11c-0.89-2.26-2.11-4.37-3.09-6.58
					c-0.57-1.29-1.08-2.6-1.57-3.92c-0.53-1.42-1.03-2.89-1.57-4.31c-0.32-0.84-1.2-1.99-1.98-2.3c-0.29-0.12-0.66,0.11-0.55,0.45
					c0.24,0.73,0.32,1.64,0.34,2.4c0.12,3.66-1.55,7.22-4.02,9.98c-0.04-1.61-0.51-3.22-1.63-4.41c-0.01-0.01-0.02-0.02-0.04-0.03
					c0.14-0.15,0.26-0.34,0.33-0.55c0.07-0.19-0.07-0.39-0.27-0.42c-0.42-0.05-0.84-0.12-1.27-0.2c1.07-0.48,1.99-1.46,2.97-2.05
					c0.23-0.14,0.2-0.57-0.1-0.62c-1.28-0.19-2.67,0.17-3.94,0.32c-0.29,0.03-0.25,0.47,0.04,0.45c0.91-0.07,1.85,0.01,2.77-0.01
					c-0.42,0.32-0.86,0.62-1.28,0.9c-0.64,0.42-1.35,0.75-2.12,0.68c-0.31-0.03-0.42,0.49-0.1,0.55c0.02,0,0.05,0.01,0.08,0.01
					c0.8,0.15,1.6,0.28,2.39,0.46c-0.79,0.76-2.25,0.44-3.11-0.05c-0.37-0.21-0.65,0.33-0.32,0.57c0.13,0.09,0.27,0.18,0.43,0.26
					c-0.01,0.04,0,0.08,0.01,0.13c0.13,0.48,0.33,0.93,0.5,1.4c-0.82-0.41-1.47-0.97-1.87-1.9c-0.09-0.22-0.48-0.19-0.44,0.08
					c0.22,1.37,1.4,2.75,2.87,2.82c0.29,0.02,0.45-0.26,0.36-0.52c-0.21-0.58-0.39-1.21-0.68-1.76c0.8,0.19,1.7,0.15,2.35-0.24
					c0.01,0.01,0.01,0.02,0.02,0.03c2.67,4.1,0.53,8.78-1.91,12.42c-1.29,1.92-2.65,3.81-3.53,5.96c-0.42,1.02-0.73,2.09-0.84,3.19
					c-0.07,0.68-0.1,1.7,0.78,1.86c0.94,0.17,1.85-1.02,2.45-1.58c0.94-0.88,1.83-1.81,2.71-2.76c1.55-1.68,3.7-3.99,6.27-3.28
					c2.35,0.65,3.21,3.29,2.92,5.48c-0.32,2.41-1.74,4.5-3.13,6.43c-2.33,3.23-5.58,5.69-7.88,8.94c-0.02,0.03-0.04,0.06-0.05,0.09
					c-0.11,0.02-0.23,0.03-0.34,0.05c-0.5,0.08-0.32,0.86,0.18,0.77c0.97-0.16,1.88-0.37,2.75-0.74c-2.31,3.53-6.52,5.45-10.58,6.6
					c1.25-0.88,2.33-2,3.24-3.22c0.81-1.07,1.5-2.23,2.13-3.41c0.49-0.92,0.88-1.91,1.35-2.84c0.02,0.54-0.05,1.08-0.22,1.59
					c0,0.01-0.01,0.03-0.01,0.04c-0.28,0.32,0.18,0.79,0.51,0.49c1.92-1.77,3.56-3.86,5.14-5.93c1.63-2.14,3.38-4.45,3.62-7.22
					c0.09-1.05-0.01-2.57-0.8-3.37c-0.84-0.85-2.1-0.43-2.94,0.18c-2.22,1.61-3.83,3.96-5.25,6.26c-0.78,1.27-1.53,2.62-2.7,3.57
					c-0.55,0.45-0.97,0.56-1.57,0.14c-0.3-0.21-0.56-0.46-0.81-0.72c-0.55-0.6-1.1-1.35-1.36-2.12c-0.01-0.02-0.02-0.04-0.03-0.05
					c0.03-0.15,0.05-0.3,0.07-0.45c0.13-1.6-0.47-3.14-0.44-4.74c0.02-0.04,0.03-0.07,0.05-0.11c1.06-2.34,1.52-4.91,2.33-7.34
					c0.01-0.02,0.01-0.05,0.01-0.07c0.41-0.38,0.8-0.77,1.18-1.18c1.89-2.06,3.69-4.82,3.61-7.72c-0.01-0.42-0.66-0.41-0.73-0.01
					c-0.22,1.39-0.53,2.7-1.17,3.96c-0.67,1.33-1.6,2.54-2.64,3.62c-0.29,0.3-0.59,0.6-0.9,0.89c-0.06,0.03-0.11,0.08-0.15,0.14
					c-1.71,1.61-3.6,3.05-5.4,4.55c0.01-1.52,0.43-3.03,1.12-4.37c0.65-1.27,1.85-2.35,2.08-3.81c0.03-0.2-0.26-0.38-0.39-0.19
					c-0.93,1.32-2.04,2.58-2.68,4.08c-0.67,1.57-0.83,3.22-0.7,4.9c0.02,0.26,0.31,0.36,0.5,0.19c1.58-1.37,3.3-2.57,4.91-3.89
					c-0.67,2.05-1.03,4.2-1.95,6.15c-0.98,2.06-2.88,3.47-3.97,5.44c-1.06-1.43-1.37-3.25-1.26-5.03c0.07-1.12,0.27-2.24,0.58-3.32
					c0.29-1,0.8-1.97,1.01-2.98c0.04-0.18-0.24-0.32-0.36-0.18c-0.76,0.83-1.15,2.09-1.45,3.15c-0.34,1.17-0.56,2.39-0.6,3.61
					c-0.02,0.62,0.01,1.24,0.09,1.86c-0.11-0.14-0.37-0.13-0.4,0.09c-0.44,3.58,1.91,7.86,5.7,8.37c0.99,0.45,2.07,0.64,3.16,0.44
					c0.63-0.12,1.13-0.49,1.59-0.92c0.42-0.39,0.97-0.91,1.12-1.49c0.02-0.01,0.04-0.03,0.07-0.04c0.95-0.64,1.66-1.63,2.29-2.56
					c0.74-1.09,1.41-2.22,2.19-3.28c0.78-1.07,1.63-2.1,2.58-3.01c0.47-0.45,0.97-0.93,1.55-1.26c0.27-0.15,0.61-0.31,0.93-0.26
					c0.51,0.08,0.68,0.56,0.81,1c0.9,2.97-0.95,5.81-2.64,8.09c-1.38,1.86-2.86,3.64-4.45,5.33c0.03-0.59-0.1-1.18-0.37-1.73
					c-0.14-0.28-0.53-0.19-0.62,0.07c-0.42,1.16-1.1,2.28-1.69,3.36c-0.6,1.08-1.23,2.14-1.96,3.13c-1.42,1.93-3.16,3.57-5.27,4.71
					c-0.28,0.15-0.18,0.69,0.18,0.59c2.93-0.88,5.9-1.48,8.6-2.98c2.3-1.28,4.19-3.06,5.3-5.46c0.14-0.3-0.19-0.6-0.47-0.42
					c-0.78,0.49-1.57,0.71-2.4,0.86c2.2-2.86,4.92-5.28,7.18-8.09c2.49-3.09,5.68-7.95,2.8-11.8c-1.22-1.62-3.18-2.27-5.12-1.64
					c-2.36,0.76-3.88,2.89-5.54,4.59c-0.47,0.48-0.94,0.94-1.42,1.4c-0.19,0.18-0.39,0.36-0.58,0.54c-0.2,0.18-0.72,0.8-0.96,0.84
					c-0.77,0.12-0.44-1.18-0.35-1.63c0.11-0.59,0.28-1.18,0.48-1.74c0.89-2.47,2.46-4.64,3.89-6.81c0.72-1.09,1.41-2.21,1.94-3.4
					c0.07-0.16,0.23-0.31,0.33-0.45c0.12-0.16,0.24-0.32,0.35-0.47c0.19-0.26,0.36-0.5,0.61-0.71c0.59-0.49,1.45-0.84,2.22-0.7
					c0.23,0.04,0.47,0.13,0.63,0.27c0.37,0.32,0.33,0.67,0.35,1.15c0.02,0.37,0.01,0.58-0.02,1.27s-0.25,2.91-0.15,3.11
					c0.08,0.16,0.21,0.2,0.4-0.32c0.19-0.52,0.57-1.69,0.74-1.96c0.15-0.24,0.43-0.76,0.72-0.85c0.51-0.15,0.77,0.62,0.92,0.96
					c0.26,0.62,0.5,1.25,0.74,1.89c0.25,1.95,0.68,3.87,1.48,5.65c0.2,0.44,0.52,0.26,0.47-0.17c-0.06-0.45-0.14-0.59-0.14-1.42
					c0-0.83,0.04-1.23,0.11-1.84c0.05-0.44,0.19-1.74,0.13-1.26c-0.04,0.32,0.06-0.47,0.15-0.49c0.09-0.02,0.26,0.31,0.32,0.4
					c0.92,1.33,1.62,2.8,2.13,4.33c1.03,3.12,1.11,6.39,0.64,9.62c0,0.01-0.01,0.02-0.01,0.03c-0.01,0.05-0.02,0.09-0.01,0.12
					c-0.01,0.05-0.01,0.1-0.02,0.15c-0.04,0.29,0.36,0.4,0.44,0.11c0.01-0.04,0.02-0.08,0.03-0.11c0.04-0.03,0.08-0.08,0.1-0.13
					C73.71,61.23,73.98,56.78,73.48,52.6z M45.49,69.73c-1.52-0.41-2.77-1.41-3.59-2.76c-0.65-1.07-0.95-2.22-1.2-3.41
					c0.29,0.91,0.75,1.77,1.44,2.48c0.22,0.23,0.59,0.19,0.72-0.12c0.55-1.3,1.56-2.28,2.49-3.32c0.41-0.46,0.78-0.94,1.12-1.44
					c0.15,1.11,0.5,2.22,0.41,3.34c-0.08,1-0.58,1.93-0.86,2.88C45.77,68.16,45.63,68.94,45.49,69.73z M48.47,70.21
					c-0.46,0.07-0.94,0.06-1.4,0.04c-0.26-0.01-0.59,0-0.88-0.03c0.07-1.08,0.36-2.15,0.73-3.17c0.16-0.45,0.35-0.88,0.5-1.33
					c0.32,0.89,0.75,1.66,1.48,2.35c0.44,0.42,0.9,0.73,1.39,0.82C49.78,69.47,49.31,70.08,48.47,70.21z M65,32.18
					c-0.13,0.18-0.47,0.44-0.76,0.52c0-0.21,0.01-0.19,0-0.41c0-0.04,0-1.17-0.06-1.69C64.64,31.06,65.13,32.02,65,32.18z
					 M63.33,44.56c-0.17-0.29-0.48-0.42-0.9-0.52c-0.42-0.11-1.23,0.01-1.84,0.21c-0.02,0.01-0.05,0.02-0.07,0.02
					c0.66-0.9,1.31-1.81,1.94-2.73c0.89-1.31,1.98-2.83,2.54-4.43c0.07,2.18-0.19,4.4-0.75,6.48c-0.17,0.62-0.4,1.24-0.64,1.87
					C63.56,45.13,63.48,44.81,63.33,44.56z M65.14,46.78c-0.57-0.17-1,0.29-1.31,0.74c0.06-0.23,0.13-0.47,0.22-0.7
					c0.42-1.2,0.85-2.38,1.12-3.63c0.41-1.89,0.52-3.78,0.39-5.68c0.55,2.79,0.36,5.77,0.48,8.56c0.03,0.61,0.06,1.23,0.1,1.85
					C65.92,47.4,65.62,46.92,65.14,46.78z M72.96,58.02c-0.06,0.93-0.17,1.85-0.32,2.76c-0.04-2.47-0.62-4.94-1.58-7.17
					c-0.41-0.95-0.89-1.88-1.44-2.76c-0.28-0.46-0.69-1.32-1.38-1.05c-0.7,0.27-0.62,1.42-0.64,2.02c-0.43-2.2-0.67-4.42-0.76-6.7
					c-0.06-1.65-0.06-3.32-0.21-4.97c-0.17-1.75-0.56-3.34-1.24-4.96c-0.05-0.11-0.14-0.15-0.23-0.15
					c-0.14-0.05-0.32,0.01-0.36,0.19c-0.79,3.65-3.35,6.5-5.51,9.51c0.08-0.32,0.14-0.65,0.19-0.99c0.04-0.27,0.06-0.55,0.08-0.83
					c2.56-2.52,4.5-5.91,4.68-9.55c0.46-0.15,0.82-0.39,1.05-0.6c0.23-0.21,0.2-0.16,0.26-0.25c0.28,0.87,0.59,1.66,0.88,2.53
					c0.38,1.11,0.77,2.21,1.2,3.31c0.87,2.26,1.97,4.4,2.97,6.6c0.8,1.75,1.41,3.56,1.81,5.41c-1.22-3.97-3.22-7.78-5.03-11.39
					c-0.12-0.23-0.48-0.07-0.37,0.17c2.86,5.9,5.66,11.96,5.97,18.59C72.97,57.83,72.97,57.92,72.96,58.02z"/>
			</g>
			<path d="M48.58,36c-1.45,0.25-2.14,1.33-2.26,2.72c-0.03,0.28,0.4,0.39,0.44,0.09c0.01-0.09,0.03-0.18,0.05-0.28
				c0.07,0.08,0.16,0.14,0.27,0.19c0.39,0.17,0.89,0.01,1.14-0.33c0.31-0.43,0.35-1.23,0.17-1.77c0.13-0.06,0.26-0.12,0.38-0.19
				C49.03,36.3,48.84,35.96,48.58,36z M47.75,37.58c-0.02,0.1-0.05,0.31-0.14,0.38c-0.22,0.19-0.47-0.09-0.53-0.29
				c0,0,0-0.01-0.01-0.01c0.09-0.18,0.21-0.35,0.36-0.49c0.12-0.11,0.24-0.19,0.38-0.26C47.81,37.12,47.79,37.37,47.75,37.58z"/>
		</g>
	</g>
</g>
</svg>
