<?xml version="1.0" encoding="utf-8"?>
<!-- Generator: Adobe Illustrator 24.0.3, SVG Export Plug-In . SVG Version: 6.00 Build 0)  -->
<svg version="1.1" id="Layer_1" xmlns="http://www.w3.org/2000/svg" xmlns:xlink="http://www.w3.org/1999/xlink" x="0px" y="0px"
	 viewBox="0 0 24 24" style="enable-background:new 0 0 24 24;" xml:space="preserve">
<style type="text/css">
	.st0{fill:#CCCCCC;}
</style>
<g id="Layer_1_1_">
</g>
<g id="Layer_2_1_">
</g>
<g id="text">
</g>
<g id="Isolation_Mode">
	<path class="st0" d="M19.22,5.65c-0.42,0-0.77,0.35-0.77,0.77v5.07c-0.17-0.46-0.5-0.85-0.97-1.09L7.05,5.07
		C6.42,4.75,5.7,4.77,5.1,5.14C4.5,5.51,4.14,6.15,4.14,6.85v10.66c0,0.7,0.36,1.33,0.96,1.71c0.32,0.21,0.67,0.3,1.04,0.3
		c0.31,0,0.62-0.07,0.91-0.22l10.45-5.33c0.45-0.23,0.79-0.63,0.97-1.09v5.05c0,0.42,0.35,0.77,0.77,0.77
		c0.42,0,0.77-0.35,0.77-0.77V6.41C19.99,6,19.65,5.65,19.22,5.65z M16.8,12.59L6.35,17.92c-0.21,0.1-0.38,0.03-0.45-0.03
		c-0.07-0.04-0.22-0.16-0.22-0.39V6.85c0-0.23,0.16-0.35,0.22-0.39c0.04-0.03,0.13-0.07,0.24-0.07c0.07,0,0.14,0.02,0.21,0.06
		l10.45,5.33c0.22,0.12,0.26,0.33,0.26,0.41C17.05,12.26,17.03,12.48,16.8,12.59z"/>
</g>
</svg>
