<?xml version="1.0" encoding="utf-8"?>
<!-- Generator: Adobe Illustrator 24.0.3, SVG Export Plug-In . SVG Version: 6.00 Build 0)  -->
<svg version="1.1" id="Layer_1" xmlns="http://www.w3.org/2000/svg" xmlns:xlink="http://www.w3.org/1999/xlink" x="0px" y="0px"
	 viewBox="0 0 24 24" style="enable-background:new 0 0 24 24;" xml:space="preserve">
<style type="text/css">
	.st0{fill:#CCCCCC;}
</style>
<g id="Layer_1_1_">
</g>
<g id="Layer_2_1_">
</g>
<g id="text">
</g>
<g id="Isolation_Mode">
	<path class="st0" d="M5.12,18.9l0.05,0.05c0.32,0.31,0.76,0.44,1.2,0.35l3.45-0.85h0.07L10,18.42c0.07-0.03,0.13-0.05,0.19-0.08
		h0.12l7.52-7.59l0,0l1.24-1.23c0.52-0.52,0.51-1.36-0.01-1.88l-2.6-2.6c-0.25-0.25-0.57-0.38-0.91-0.38h-0.01
		c-0.35,0-0.68,0.14-0.94,0.39l-1.23,1.23l0,0L5.81,13.8v0.13L5.7,14.18v0.12l-0.85,3.37C4.73,18.1,4.83,18.55,5.12,18.9z
		 M15.53,6.12l2.45,2.45l-0.95,0.94l-2.45-2.45L15.53,6.12z M7.1,14.55l0.09-0.12l6.4-6.37l2.45,2.45l-6.36,6.42l-0.15,0.1
		l-3.25,0.8L7.1,14.55z"/>
</g>
</svg>
