<?xml version="1.0" encoding="utf-8"?>
<!-- Generator: Adobe Illustrator 24.0.3, SVG Export Plug-In . SVG Version: 6.00 Build 0)  -->
<svg version="1.1" id="Layer_1" xmlns="http://www.w3.org/2000/svg" xmlns:xlink="http://www.w3.org/1999/xlink" x="0px" y="0px"
	 viewBox="0 0 24 24" style="enable-background:new 0 0 24 24;" xml:space="preserve">
<style type="text/css">
	.st0{fill:#D94E18;}
</style>
<g id="Layer_1_1_">
</g>
<g id="Layer_2_1_">
</g>
<g id="text">
</g>
<g id="Isolation_Mode">
	<path class="st0" d="M18.54,10.4L8.1,5.07c-0.63-0.32-1.35-0.3-1.96,0.08c-0.6,0.36-0.96,1-0.96,1.7v10.67
		c0,0.7,0.35,1.33,0.96,1.7c0.32,0.2,0.68,0.3,1.04,0.3c0.31,0,0.62-0.07,0.91-0.22l10.45-5.34c0.68-0.35,1.09-1.03,1.09-1.78
		C19.64,11.43,19.22,10.74,18.54,10.4z M17.85,12.59L7.4,17.93c-0.21,0.11-0.39,0.03-0.45-0.03c-0.07-0.04-0.22-0.16-0.22-0.39V6.84
		c0-0.24,0.15-0.35,0.22-0.39c0.04-0.03,0.13-0.07,0.25-0.07c0.07,0,0.14,0.02,0.21,0.05l10.45,5.34c0.23,0.12,0.26,0.32,0.26,0.41
		C18.1,12.26,18.08,12.48,17.85,12.59z"/>
</g>
</svg>
