<?xml version="1.0" encoding="utf-8"?>
<!-- Generator: Adobe Illustrator 24.1.0, SVG Export Plug-In . SVG Version: 6.00 Build 0)  -->
<svg version="1.1" xmlns="http://www.w3.org/2000/svg" xmlns:xlink="http://www.w3.org/1999/xlink" x="0px" y="0px"
	 viewBox="0 0 24 24" style="enable-background:new 0 0 24 24;" xml:space="preserve">
<style type="text/css">
	.st0{fill:#CCCCCC;}
</style>
<g id="Layer_1">
	<g id="Layer_1_4_">
		<g id="Layer_1_3_">
			<g id="Layer_1_2_">
				<g id="Layer_1_1_">
				</g>
				<g id="text">
				</g>
				<g id="Isolation_Mode">
				</g>
			</g>
		</g>
	</g>
</g>
<g id="Isolation_Mode_2_">
	<g>
		<path class="st0" d="M21.5,11L21.5,11c-0.1-0.6-0.6-0.9-1.1-0.9c0,0,0,0,0,0c-0.4,0-0.7-0.1-1-0.4c-0.3-0.3-0.4-0.6-0.4-1
			c0-0.4,0.2-0.8,0.5-1.1c0.4-0.4,0.5-1,0.1-1.4C19,5.6,18.5,5.1,18,4.6c-0.4-0.3-1.1-0.3-1.4,0.1c-0.4,0.4-1.1,0.6-1.6,0.4
			c-0.6-0.2-0.9-0.8-0.9-1.4c0-0.6-0.4-1-0.9-1.1c-0.7-0.1-1.4-0.1-2.1,0c-0.5,0.1-1,0.5-0.9,1.1c0,0.6-0.3,1.1-0.9,1.4
			C8.6,5.2,8,5.1,7.6,4.7c-0.4-0.4-1-0.5-1.4-0.1C5.6,5,5.1,5.5,4.6,6.1C4.3,6.5,4.3,7.1,4.7,7.5c0.4,0.4,0.6,1,0.4,1.6
			C4.8,9.7,4.3,10,3.7,10c-0.6,0-1.1,0.4-1.1,0.9c-0.1,0.7-0.1,1.4,0,2.1c0.1,0.6,0.6,1,1.1,1c0,0,0,0,0,0c0.6,0,1.1,0.3,1.3,0.9
			c0.2,0.5,0.1,1.2-0.4,1.6c-0.4,0.4-0.5,1-0.1,1.4C5,18.5,5.5,19,6.1,19.4c0.4,0.4,1.1,0.3,1.4-0.1c0.4-0.4,1.1-0.6,1.6-0.4
			c0.6,0.2,0.9,0.8,0.9,1.4c0,0.6,0.4,1,0.9,1.1c0.4,0,0.7,0.1,1.1,0.1c0,0,0,0,0,0c0.3,0,0.7,0,1-0.1c0.5-0.1,1-0.5,0.9-1.1
			c0-0.6,0.3-1.1,0.9-1.4c0.6-0.2,1.2-0.1,1.6,0.4c0.4,0.4,1,0.5,1.4,0.1c0.6-0.4,1.1-1,1.5-1.5c0.4-0.4,0.3-1.1-0.1-1.5
			c-0.3-0.2-0.4-0.6-0.5-1c0-0.4,0.1-0.7,0.3-1c0.3-0.3,0.7-0.5,1.1-0.5h0.1c0.6,0,1-0.4,1.1-0.9C21.5,12.4,21.5,11.7,21.5,11z
			 M20.4,12.9L20.4,12.9c-0.8,0-1.5,0.3-2,0.9c-0.4,0.5-0.7,1.2-0.6,1.8c0,0.7,0.3,1.3,0.8,1.7c-0.4,0.5-0.8,0.9-1.3,1.3
			c-0.7-0.7-1.8-1-2.8-0.6c-1,0.4-1.6,1.4-1.6,2.4c-0.3,0-0.6,0-0.9,0c-0.3,0-0.6,0-0.9,0c0-1-0.6-2-1.6-2.4c-1-0.4-2.1-0.1-2.8,0.6
			c-0.5-0.4-0.9-0.8-1.2-1.3c0.7-0.7,1-1.8,0.6-2.8c-0.4-1-1.3-1.6-2.3-1.6c0,0,0,0-0.1,0c-0.1-0.6-0.1-1.2,0-1.8c1,0,2-0.6,2.4-1.5
			c0.4-1,0.2-2.1-0.6-2.8c0.4-0.5,0.8-0.9,1.3-1.3c0.7,0.7,1.8,1,2.8,0.6c1-0.4,1.6-1.4,1.6-2.4c0.6-0.1,1.2-0.1,1.8,0
			c0,1,0.6,2,1.6,2.4c1,0.4,2.1,0.1,2.8-0.6c0.5,0.4,0.9,0.8,1.2,1.3C18,7.3,17.7,8,17.8,8.7c0,0.7,0.3,1.3,0.8,1.8
			c0.5,0.5,1.1,0.7,1.8,0.7c0,0,0,0,0,0C20.4,11.8,20.4,12.4,20.4,12.9z"/>
		<path class="st0" d="M12,8.5c-2,0-3.5,1.6-3.5,3.5s1.6,3.5,3.5,3.5h0h0c2,0,3.5-1.6,3.5-3.5C15.6,10.1,14,8.5,12,8.5z M12,14.5
			c-1.3,0-2.4-1.1-2.4-2.4c0-1.3,1.1-2.4,2.4-2.4s2.4,1.1,2.4,2.4C14.5,13.4,13.4,14.5,12,14.5z"/>
	</g>
</g>
</svg>
