<?xml version="1.0" encoding="UTF-8" standalone="no"?>
<!-- Created with Inkscape (http://www.inkscape.org/) -->

<svg
   xmlns:dc="http://purl.org/dc/elements/1.1/"
   xmlns:cc="http://creativecommons.org/ns#"
   xmlns:rdf="http://www.w3.org/1999/02/22-rdf-syntax-ns#"
   xmlns:svg="http://www.w3.org/2000/svg"
   xmlns="http://www.w3.org/2000/svg"
   xmlns:sodipodi="http://sodipodi.sourceforge.net/DTD/sodipodi-0.dtd"
   xmlns:inkscape="http://www.inkscape.org/namespaces/inkscape"
   width="24"
   height="24"
   viewBox="0 0 6.3499998 6.3499998"
   version="1.1"
   id="svg67"
   inkscape:version="0.92.4 5da689c313, 2019-01-14"
   sodipodi:docname="02shang.svg">
  <defs
     id="defs61" />
  <sodipodi:namedview
     id="base"
     pagecolor="#ffffff"
     bordercolor="#666666"
     borderopacity="1.0"
     inkscape:pageopacity="0.0"
     inkscape:pageshadow="2"
     inkscape:zoom="16"
     inkscape:cx="-5.1400668"
     inkscape:cy="18.855653"
     inkscape:document-units="mm"
     inkscape:current-layer="layer1"
     showgrid="false"
     inkscape:window-width="1890"
     inkscape:window-height="1043"
     inkscape:window-x="30"
     inkscape:window-y="0"
     inkscape:window-maximized="1"
     units="px"
     inkscape:snap-bbox="false" />
  <metadata
     id="metadata64">
    <rdf:RDF>
      <cc:Work
         rdf:about="">
        <dc:format>image/svg+xml</dc:format>
        <dc:type
           rdf:resource="http://purl.org/dc/dcmitype/StillImage" />
        <dc:title></dc:title>
      </cc:Work>
    </rdf:RDF>
  </metadata>
  <g
     inkscape:label="Layer 1"
     inkscape:groupmode="layer"
     id="layer1"
     transform="translate(0,-290.65)">
    <path
       inkscape:connector-curvature="0"
       d="m 3.3304149,296.05064 q 0.022305,-1.28374 0.037179,-2.4336 v -0.29139 q 0,-1.37826 0.1338425,-1.9138 0.096665,-0.18903 -0.022305,-0.30716 -0.3123002,-0.24415 -0.5576793,-0.32289 -0.1189716,-0.0236 -0.245379,0.0866 -0.052053,0.0708 0,0.16538 0.2230723,0.33866 0.2230723,1.11048 0,1.8508 0.029738,3.94574 c 0,0.23626 0.3940933,0.19689 0.4015291,-0.0394 z"
       class="stroke1"
       id="path14"
       style="fill:#000000;stroke-width:0.00765256" />
    <path
       inkscape:connector-curvature="0"
       d="m 3.1169256,294.14905 q 0.3569147,0.0473 1.167409,-0.1339 0.6469081,-0.14176 0.6989576,-0.19688 0.074359,-0.0709 0.029738,-0.14964 -0.066917,-0.10243 -0.3123003,-0.15752 -0.2528139,-0.0472 -0.5056289,0.0708 -0.2453791,0.0945 -0.5130648,0.16539 -0.2751218,0.0709 -0.5651152,0.11024 c -0.2230713,0.0315 -0.2230713,0.26778 0,0.29141 z"
       class="stroke2"
       id="path16"
       style="fill:#000000;stroke-width:0.00765256" />
    <path
       inkscape:connector-curvature="0"
       d="m 3.1179648,296.52319 q 0.4015291,-0.008 0.7807516,-0.0473 1.1004867,-0.0945 2.067131,0.0552 0.2007646,0.0236 0.2528141,-0.0552 0.066917,-0.11813 -0.037179,-0.22051 -0.245379,-0.24415 -0.6022937,-0.43317 -0.1189716,-0.0552 -0.3420429,0.0157 -0.7881865,0.14964 -2.1786667,0.28352 l -0.4015292,0.0394 q -0.7658798,0.0552 -1.167409,0.11025 -0.52049978,0.0788 -1.27894368,0.063 -0.11897156,0 -0.12640747,0.10242 -0.007471,0.10243 0.14127832,0.23628 0.33460795,0.2599 0.70639451,0.17327 0.40896412,-0.11815 1.35330172,-0.23628 0.3866573,-0.0552 0.8328001,-0.0866 z"
       class="stroke3"
       id="path18"
       style="fill:#000000;stroke-width:0.00765256" />
    <g
       aria-label="1"
       transform="scale(1.0276805,0.97306509)"
       style="font-style:normal;font-variant:normal;font-weight:bold;font-stretch:normal;font-size:2.82222223px;line-height:1.25;font-family:'URW Bookman';-inkscape-font-specification:'URW Bookman Bold';letter-spacing:0px;word-spacing:0px;fill:#000000;fill-opacity:1;stroke:none;stroke-width:0.07987155"
       id="text150">
      <path
         d="M 2.0904504,298.78089 H 1.9549837 c -0.1919111,0.0451 -0.3076222,0.0677 -0.3471334,0.0734 -0.059267,0.008 -0.2765777,0.0254 -0.3273777,0.0254 -0.00847,0 -0.0254,0 -0.045156,-0.003 v 0.22014 l 0.039511,0.003 c 0.3104445,0.0169 0.3273778,0.0254 0.3217334,0.2032 v 0.95109 c 0,0.17215 -0.0254,0.19191 -0.2878667,0.21166 l -0.073378,0.006 v 0.23142 h 1.2163778 v -0.23142 l -0.064911,-0.006 c -0.2596445,-0.0141 -0.2991556,-0.0452 -0.2963333,-0.21166 z"
         style="font-style:normal;font-variant:normal;font-weight:bold;font-stretch:normal;font-size:2.82222223px;font-family:'URW Bookman';-inkscape-font-specification:'URW Bookman Bold';stroke-width:0.07987155"
         id="path207" />
    </g>
    <g
       aria-label="2"
       transform="scale(1.0276805,0.97306508)"
       style="font-style:normal;font-variant:normal;font-weight:bold;font-stretch:normal;font-size:2.82222223px;line-height:1.25;font-family:'Nimbus Sans';-inkscape-font-specification:'Nimbus Sans Bold';letter-spacing:0px;word-spacing:0px;fill:#000000;fill-opacity:1;stroke:none;stroke-width:0.07987155"
       id="text150-6">
      <path
         d="m 6.1402173,300.79465 -0.2286,-0.0621 c -0.127,0.26247 -0.1636889,0.28223 -0.508,0.2794 H 5.0508395 c 0.3499556,-0.18909 0.5221111,-0.29915 0.6886223,-0.44873 0.2144888,-0.19191 0.3019777,-0.34713 0.3019777,-0.53622 0,-0.34996 -0.3104444,-0.57856 -0.7845777,-0.57856 -0.4515556,0 -0.7732889,0.23425 -0.7732889,0.5588 0,0.15805 0.1016,0.26811 0.2483555,0.26811 0.127,0 0.2342445,-0.0988 0.2342445,-0.21731 0,-0.048 -0.011289,-0.0818 -0.045156,-0.13264 -0.019756,-0.031 -0.028222,-0.0508 -0.028222,-0.0734 0,-0.0818 0.1382889,-0.15804 0.2822222,-0.15804 0.1862667,0 0.3048,0.11006 0.3048,0.28222 0,0.20038 -0.1213555,0.42615 -0.3443111,0.635 -0.1608667,0.1524 -0.2229556,0.19755 -0.6519333,0.47978 l 0.045155,0.31608 h 1.4393334 z"
         style="font-style:normal;font-variant:normal;font-weight:bold;font-stretch:normal;font-size:2.82222223px;font-family:'URW Bookman';-inkscape-font-specification:'URW Bookman Bold';stroke-width:0.07987155"
         id="path210" />
    </g>
    <g
       aria-label="3"
       transform="scale(1.0276805,0.97306507)"
       style="font-style:normal;font-variant:normal;font-weight:bold;font-stretch:normal;font-size:2.82222223px;line-height:1.25;font-family:'DejaVu Sans Mono';-inkscape-font-specification:'DejaVu Sans Mono Bold';letter-spacing:0px;word-spacing:0px;fill:#000000;fill-opacity:1;stroke:none;stroke-width:0.07987155"
       id="text150-6-0">
      <path
         d="m 0.72758137,303.37822 c 0.0479778,-0.003 0.0677333,-0.003 0.10442222,-0.003 0.14393333,0 0.25682221,0.0226 0.32173331,0.0677 0.0762,0.0536 0.127,0.16369 0.127,0.28222 0,0.21167 -0.1354666,0.34149 -0.36124442,0.34149 -0.16086667,0 -0.3048,-0.0649 -0.3048,-0.13547 l 0.002822,-0.0226 c 0.0254,-0.0593 0.0254,-0.0621 0.0254,-0.096 0,-0.12136 -0.10442222,-0.21449 -0.24271111,-0.21449 -0.13828889,0 -0.24271111,0.11289 -0.24271111,0.25964 0,0.26812 0.32455555,0.46849 0.762,0.46849 0.27093332,0 0.52775552,-0.0706 0.68862222,-0.19191 0.1354667,-0.0988 0.2257778,-0.27658 0.2257778,-0.43462 0,-0.2286 -0.1467556,-0.39229 -0.4092222,-0.4572 0.1947333,-0.0734 0.3189111,-0.22296 0.3189111,-0.39229 0,-0.3048 -0.3132667,-0.51929 -0.75635559,-0.51929 -0.44308889,0 -0.76764444,0.21449 -0.76764444,0.508 0,0.14676 0.0959556,0.24836 0.23988889,0.24836 0.13828889,0 0.24553333,-0.0903 0.24553333,-0.20885 0,-0.0339 -0.0112889,-0.0705 -0.0282222,-0.1016 -0.0141111,-0.0282 -0.0197556,-0.0395 -0.0197556,-0.0536 0,-0.0621 0.14111111,-0.13264 0.26246667,-0.13264 0.17215552,0 0.28222222,0.0903 0.28222222,0.23706 0,0.10443 -0.053622,0.2032 -0.1326444,0.25118 -0.053622,0.0282 -0.15240004,0.048 -0.26246671,0.048 -0.0141111,0 -0.0310444,0 -0.0790222,-0.003 z"
         style="font-style:normal;font-variant:normal;font-weight:bold;font-stretch:normal;font-size:2.82222223px;font-family:'URW Bookman';-inkscape-font-specification:'URW Bookman Bold';stroke-width:0.07987155"
         id="path213" />
    </g>
  </g>
</svg>
