<?xml version="1.0" encoding="utf-8"?>
<!-- Generator: Adobe Illustrator 24.1.0, SVG Export Plug-In . SVG Version: 6.00 Build 0)  -->
<svg version="1.1" xmlns="http://www.w3.org/2000/svg" xmlns:xlink="http://www.w3.org/1999/xlink" x="0px" y="0px"
	 viewBox="0 0 24 24" style="enable-background:new 0 0 24 24;" xml:space="preserve">
<style type="text/css">
	.st0{fill:#CCCCCC;}
</style>
<g id="Layer_1">
	<g id="Layer_1_5_">
		<g id="Layer_1_4_">
			<g id="Layer_1_3_">
				<g id="Layer_1_2_">
					<g id="Layer_1_1_">
					</g>
					<g id="text">
					</g>
					<g id="Isolation_Mode">
					</g>
				</g>
			</g>
		</g>
	</g>
</g>
<g id="Isolation_Mode_1_">
	<g>
		<path class="st0" d="M21.427,10.951l0-0.003c-0.066-0.579-0.64-0.938-1.146-0.938c0,0,0,0,0,0c-0.375,0.009-0.729-0.13-1-0.389
			c-0.27-0.259-0.424-0.608-0.432-0.982c-0.009-0.411,0.162-0.804,0.472-1.08c0.412-0.374,0.464-1.008,0.119-1.442
			c-0.442-0.559-0.948-1.07-1.506-1.52C17.496,4.249,16.86,4.3,16.495,4.705c-0.416,0.439-1.05,0.582-1.596,0.372
			c-0.55-0.235-0.896-0.794-0.863-1.392c0.03-0.556-0.38-1.045-0.937-1.112c-0.707-0.082-1.425-0.083-2.133-0.005
			c-0.544,0.06-0.958,0.536-0.943,1.088c0.021,0.59-0.331,1.138-0.857,1.356c-0.562,0.209-1.194,0.065-1.6-0.354
			C7.194,4.251,6.564,4.199,6.131,4.539C5.563,4.985,5.047,5.496,4.595,6.06C4.251,6.493,4.299,7.127,4.711,7.509
			c0.447,0.401,0.593,1.043,0.37,1.578c-0.253,0.55-0.807,0.888-1.397,0.874c-0.571-0.036-1.056,0.381-1.108,0.935
			c-0.083,0.716-0.083,1.442-0.002,2.143c0.052,0.588,0.634,0.952,1.147,0.952c0.004,0,0.008,0,0.011,0
			c0.574,0,1.083,0.342,1.298,0.873c0.221,0.547,0.077,1.183-0.355,1.581c-0.41,0.373-0.461,1.005-0.119,1.438
			c0.441,0.561,0.946,1.073,1.502,1.519C6.494,19.753,7.13,19.705,7.5,19.3c0.418-0.44,1.053-0.584,1.602-0.375
			c0.551,0.232,0.898,0.79,0.862,1.389c-0.03,0.556,0.38,1.045,0.937,1.112c0.36,0.041,0.727,0.062,1.091,0.062
			c0.006,0,0.012,0,0.018,0c0.343,0,0.688-0.02,1.026-0.059c0.548-0.061,0.962-0.54,0.943-1.092
			c-0.022-0.589,0.329-1.137,0.853-1.355c0.561-0.208,1.19-0.063,1.595,0.361c0.372,0.407,1.003,0.458,1.436,0.118
			c0.566-0.446,1.081-0.957,1.532-1.517c0.351-0.435,0.302-1.071-0.118-1.455c-0.281-0.248-0.449-0.59-0.472-0.964
			c-0.024-0.374,0.1-0.734,0.348-1.015c0.271-0.308,0.667-0.476,1.081-0.475h0.098c0.553,0.021,1.028-0.386,1.095-0.939
			C21.506,12.392,21.506,11.67,21.427,10.951z M20.316,12.912h-0.073c-0.74-0.018-1.444,0.301-1.933,0.856
			c-0.446,0.506-0.669,1.156-0.626,1.829c0.041,0.653,0.326,1.253,0.798,1.689c-0.377,0.462-0.803,0.884-1.268,1.255
			c-0.723-0.73-1.806-0.97-2.793-0.604c-0.958,0.398-1.582,1.351-1.567,2.383c-0.284,0.031-0.573,0.047-0.859,0.045
			c-0.303,0-0.608-0.017-0.904-0.049c0.036-1.048-0.581-2.018-1.569-2.434c-0.973-0.372-2.064-0.136-2.802,0.608
			c-0.456-0.372-0.873-0.793-1.241-1.255c0.744-0.716,0.984-1.83,0.596-2.792c-0.39-0.959-1.307-1.576-2.336-1.576
			c-0.015,0-0.03,0-0.052-0.008c-0.063-0.585-0.063-1.178,0.001-1.774c1.028,0.006,1.981-0.583,2.424-1.547
			c0.407-0.978,0.163-2.107-0.601-2.823C5.887,6.254,6.313,5.832,6.779,5.46c0.727,0.727,1.813,0.965,2.798,0.598
			c0.958-0.397,1.584-1.35,1.571-2.379c0.586-0.06,1.179-0.058,1.762,0.004c-0.033,1.045,0.582,2.015,1.566,2.435
			c0.972,0.374,2.062,0.14,2.802-0.606c0.457,0.373,0.874,0.794,1.243,1.254c-0.522,0.491-0.812,1.178-0.796,1.897
			c0.015,0.675,0.292,1.303,0.779,1.77c0.488,0.467,1.124,0.714,1.788,0.701c0.007,0,0.016,0.004,0.025,0.008
			C20.377,11.738,20.376,12.334,20.316,12.912z"/>
		<path class="st0" d="M12.013,8.48c-1.951,0-3.539,1.588-3.539,3.539s1.588,3.539,3.539,3.539h0h0
			c1.949-0.002,3.536-1.59,3.538-3.539C15.552,10.067,13.965,8.48,12.013,8.48z M12.013,14.433c-1.331,0-2.414-1.083-2.414-2.414
			c0-1.331,1.083-2.414,2.414-2.414s2.414,1.083,2.414,2.414C14.426,13.348,13.343,14.431,12.013,14.433z"/>
	</g>
</g>
</svg>
