<?xml version="1.0" encoding="utf-8"?>
<!-- Generator: Adobe Illustrator 24.0.3, SVG Export Plug-In . SVG Version: 6.00 Build 0)  -->
<svg version="1.1" xmlns="http://www.w3.org/2000/svg" xmlns:xlink="http://www.w3.org/1999/xlink" x="0px" y="0px"
	 viewBox="0 0 24 24" style="enable-background:new 0 0 24 24;" xml:space="preserve">
<style type="text/css">
	.st0{fill:#CCCCCC;}
</style>
<g id="Layer_1">
	<g id="Layer_1_2_">
		<g id="Layer_1_1_">
		</g>
		<g id="text">
		</g>
		<g id="Isolation_Mode">
		</g>
	</g>
</g>
<g id="Isolation_Mode_1_">
	<g>
		<path class="st0" d="M23.6,10.9L23.6,10.9c-0.1-0.7-0.8-1.1-1.4-1.1c0,0,0,0,0,0c-0.5,0-0.9-0.2-1.2-0.5c-0.3-0.3-0.5-0.7-0.5-1.2
			c0-0.5,0.2-1,0.6-1.3c0.5-0.5,0.6-1.2,0.1-1.7c-0.5-0.7-1.1-1.3-1.8-1.8c-0.5-0.4-1.3-0.4-1.7,0.1c-0.5,0.5-1.3,0.7-1.9,0.5
			c-0.7-0.3-1.1-1-1-1.7c0-0.7-0.5-1.3-1.1-1.3c-0.9-0.1-1.7-0.1-2.6,0C10.2,0.8,9.7,1.4,9.7,2c0,0.7-0.4,1.4-1,1.6
			C8,3.9,7.2,3.8,6.7,3.3C6.3,2.8,5.5,2.7,5,3.1C4.3,3.7,3.7,4.3,3.1,5C2.7,5.5,2.8,6.2,3.3,6.7C3.8,7.2,4,8,3.7,8.6
			C3.4,9.3,2.8,9.7,2,9.7c-0.7,0-1.3,0.5-1.3,1.1c-0.1,0.9-0.1,1.7,0,2.6c0.1,0.7,0.8,1.2,1.4,1.2c0,0,0,0,0,0
			c0.7,0,1.3,0.4,1.6,1.1c0.3,0.7,0.1,1.4-0.4,1.9c-0.5,0.5-0.6,1.2-0.1,1.7c0.5,0.7,1.1,1.3,1.8,1.8c0.5,0.4,1.3,0.4,1.7-0.1
			c0.5-0.5,1.3-0.7,1.9-0.5c0.7,0.3,1.1,1,1,1.7c0,0.7,0.5,1.3,1.1,1.3c0.4,0,0.9,0.1,1.3,0.1c0,0,0,0,0,0c0.4,0,0.8,0,1.2-0.1
			c0.7-0.1,1.2-0.7,1.1-1.3c0-0.7,0.4-1.4,1-1.6c0.7-0.3,1.4-0.1,1.9,0.4c0.5,0.5,1.2,0.6,1.7,0.1c0.7-0.5,1.3-1.2,1.9-1.8
			c0.4-0.5,0.4-1.3-0.1-1.8c-0.3-0.3-0.5-0.7-0.6-1.2c0-0.5,0.1-0.9,0.4-1.2c0.3-0.4,0.8-0.6,1.3-0.6h0.1c0.7,0,1.2-0.5,1.3-1.1
			C23.6,12.6,23.6,11.8,23.6,10.9z M22.2,13.3L22.2,13.3c-1,0-1.8,0.4-2.4,1c-0.5,0.6-0.8,1.4-0.8,2.2c0,0.8,0.4,1.5,1,2
			c-0.5,0.6-1,1.1-1.5,1.5c-0.9-0.9-2.2-1.2-3.4-0.7c-1.2,0.5-1.9,1.6-1.9,2.9c-0.3,0-0.7,0.1-1,0.1c-0.4,0-0.7,0-1.1-0.1
			c0-1.3-0.7-2.4-1.9-3c-1.2-0.5-2.5-0.2-3.4,0.7c-0.6-0.5-1.1-1-1.5-1.5c0.9-0.9,1.2-2.2,0.7-3.4c-0.5-1.2-1.6-1.9-2.8-1.9
			c0,0,0,0-0.1,0C2,12.5,2,11.8,2,11c1.2,0,2.4-0.7,2.9-1.9C5.5,8,5.2,6.6,4.3,5.7c0.5-0.6,1-1.1,1.5-1.5C6.7,5.1,8,5.4,9.2,5
			c1.2-0.5,1.9-1.6,1.9-2.9c0.7-0.1,1.4-0.1,2.1,0c0,1.3,0.7,2.4,1.9,3c1.2,0.5,2.5,0.2,3.4-0.7c0.6,0.5,1.1,1,1.5,1.5
			c-0.6,0.6-1,1.4-1,2.3c0,0.8,0.4,1.6,0.9,2.1s1.4,0.9,2.2,0.8c0,0,0,0,0,0C22.3,11.8,22.3,12.6,22.2,13.3z"/>
		<path class="st0" d="M12.1,7.9c-2.4,0-4.3,1.9-4.3,4.3s1.9,4.3,4.3,4.3h0h0c2.4,0,4.3-1.9,4.3-4.3C16.4,9.8,14.5,7.9,12.1,7.9z
			 M12.1,15.1c-1.6,0-2.9-1.3-2.9-2.9c0-1.6,1.3-2.9,2.9-2.9s2.9,1.3,2.9,2.9C15.1,13.8,13.7,15.1,12.1,15.1z"/>
	</g>
</g>
</svg>
