<?xml version="1.0" encoding="utf-8"?>
<!-- Generator: Adobe Illustrator 24.0.3, SVG Export Plug-In . SVG Version: 6.00 Build 0)  -->
<svg version="1.1" xmlns="http://www.w3.org/2000/svg" xmlns:xlink="http://www.w3.org/1999/xlink" x="0px" y="0px"
	 viewBox="0 0 24 24" style="enable-background:new 0 0 24 24;" xml:space="preserve">
<style type="text/css">
	.st0{fill:#CCCCCC;}
</style>
<g id="Layer_1">
	<g id="Layer_1_3_">
		<g id="Layer_1_2_">
			<g id="Layer_1_1_">
			</g>
			<g id="text">
			</g>
			<g id="Isolation_Mode">
			</g>
		</g>
	</g>
</g>
<g id="Isolation_Mode_1_">
	<g>
		<path class="st0" d="M21.7,11.6c-0.8-1.1-1.8-2.1-2.8-2.9c-2.3-1.9-4.7-3-6.9-3c-1,0-1.9,0.2-2.8,0.5c-0.5,0.2-1,0.4-1.4,0.6l0,0
			C7.5,7,7.2,7.2,6.8,7.4c-0.1,0-0.1,0.1-0.2,0.1c-0.4,0.3-0.7,0.5-1,0.7c0,0-0.1,0-0.1,0.1C5.2,8.6,4.9,8.8,4.7,9
			C3.8,9.8,3,10.7,2.3,11.6c-0.2,0.2-0.2,0.5,0,0.8c0.8,1.1,1.8,2.1,2.8,2.9c2.3,1.9,4.7,3,6.9,3c0.6,0,1.2-0.1,1.8-0.2
			c0.1,0,0.3-0.1,0.4-0.1c0,0,0,0,0.1,0c0.4-0.1,1.1-0.4,1.9-0.8c0.1-0.1,0.3-0.2,0.4-0.2c0.6-0.4,1.1-0.7,1.4-0.9
			c0.3-0.2,0.5-0.4,0.8-0.6c1-0.9,2-1.9,2.8-2.9C21.9,12.2,21.9,11.8,21.7,11.6z M9.6,7.5c0,0-0.1,0-0.2,0.1
			C9.5,7.5,9.6,7.5,9.6,7.5z M16.7,15.3c-0.1,0.1-0.2,0.1-0.3,0.2l0,0c-0.1,0.1-0.3,0.2-0.4,0.3c-0.3,0.2-0.5,0.3-0.7,0.4
			c-0.5,0.2-0.9,0.4-1.2,0.5c0,0-0.1,0-0.1,0c-0.6,0.2-1.3,0.3-2,0.3c-4,0-7.4-3.9-8.3-5c0.5-0.6,1.1-1.3,1.7-1.8
			c0.1-0.1,0.2-0.2,0.3-0.3c0.2-0.1,0.4-0.3,0.7-0.6c0.3-0.3,0.7-0.6,1.2-0.9c0,0,0,0,0,0c0.9-0.5,1.5-0.8,1.9-1c0,0,0,0,0,0
			C10.2,7.2,11.1,7.1,12,7c4,0,7.4,3.9,8.3,5C19.3,13.3,18.1,14.4,16.7,15.3z"/>
		<path class="st0" d="M15.8,11.5c-0.1-1-0.6-1.9-1.4-2.6c-0.7-0.5-1.5-0.8-2.4-0.8c-0.6,0-1.1,0.1-1.7,0.4C9.7,8.8,9.2,9.3,8.9,9.8
			c-0.4,0.6-0.7,1.3-0.7,2.1c0,0.1,0,0.1,0,0.2c0,1.5,0.9,2.8,2.2,3.5c0,0,0,0,0,0c0.1,0,0.2,0.1,0.2,0.1c0.1,0,0.1,0,0.2,0.1
			c0,0,0.1,0,0.1,0c0.4,0.1,0.7,0.2,1.1,0.2c0.8,0,1.6-0.3,2.2-0.7c0.4-0.3,0.7-0.6,0.9-0.9l0,0C15.7,13.4,15.9,12.5,15.8,11.5z
			 M13.3,14.2c-0.3,0.2-0.7,0.3-1.2,0.3c0,0-0.1,0-0.1,0c-1.1,0-2-0.7-2.4-1.6c-0.1-0.3-0.2-0.6-0.2-1c0-0.5,0.1-0.9,0.3-1.3
			c0.4-0.8,1.3-1.3,2.2-1.3c1.4,0,2.6,1.2,2.6,2.6C14.6,13,14.1,13.8,13.3,14.2z"/>
	</g>
</g>
</svg>
